<?xml version="1.0" encoding="utf-8"?>
<svg version="1.1" xmlns:xlink="http://www.w3.org/1999/xlink" width="26px" height="29px" xmlns="http://www.w3.org/2000/svg">
  <g transform="matrix(1 0 0 1 -717 -1821 )">
    <path d="M 25.6333155934007 16.0859375  C 25.8777718644669 16.2644412878788  26 16.5596590909091  26 16.9715909090909  C 26 17.3972537878788  25.8570161433387 17.8503787878788  25.571048430016 18.3309659090909  L 20.9217668972858 26.4872159090909  C 20.5251020046124 27.1875  19.9693099166223 27.7813683712121  19.2543906333156 28.2688210227273  C 18.5394713500089 28.7562736742424  17.877594465141 29  17.2687599787121 29  L 2.21394358701437 29  C 1.900301578854 29  1.62125243924073 28.9107481060606  1.37679616817456 28.7322443181818  C 1.13233989710839 28.553740530303  1.01011176157531 28.2585227272727  1.01011176157531 27.8465909090909  C 1.01011176157531 27.420928030303  1.15309561823665 26.967803030303  1.43906333155934 26.4872159090909  L 6.08834486428952 18.3309659090909  C 6.48500975696293 17.6306818181818  7.04080184495299 17.0368134469697  7.75572112825971 16.5493607954545  C 8.47064041156644 16.0619081439394  9.13251729643427 15.8181818181818  9.74135178286322 15.8181818181818  L 24.7961681745609 15.8181818181818  C 25.1098101827213 15.8181818181818  25.3888593223346 15.9074337121212  25.6333155934007 16.0859375  Z M 20.3406067056945 6.63210227272727  C 20.9494411921235 7.53835227272727  21.2538584353379 8.62310606060606  21.2538584353379 9.88636363636364  L 21.2538584353379 13.1818181818182  L 9.74135178286322 13.1818181818182  C 8.87422387794926 13.1818181818182  7.96558453077878 13.5079308712121  7.01543374135178 14.16015625  C 6.06528295192478 14.8123816287879  5.30885222636154 15.6328125  4.74614156466205 16.6214488636364  L 0.0830228845130389 24.7776988636364  L 0.0138371474188398 24.9012784090909  C 0.0138371474188398 24.8463541666667  0.0115309561823665 24.7605350378788  0.0069185737094199 24.6438210227273  C 0.0023061912364733 24.5271070075758  0 24.4412878787879  0 24.3863636363636  L 0 4.61363636363636  C 0 3.35037878787878  0.304417243214476 2.265625  0.913251729643427 1.359375  C 1.52208621607238 0.453125  2.25084264679794 0  3.09952102182012 0  L 7.52740819584886 0  C 8.37608657087103 0  9.10484300159659 0.453125  9.71367748802555 1.359375  C 10.3225119744545 2.265625  10.626929217669 3.35037878787878  10.626929217669 4.61363636363636  L 10.626929217669 5.27272727272727  L 18.1543374135178 5.27272727272727  C 19.00301578854 5.27272727272727  19.7317722192656 5.72585227272727  20.3406067056945 6.63210227272727  Z " fill-rule="nonzero" fill="#f1ca89" stroke="none" transform="matrix(1 0 0 1 717 1821 )" />
  </g>
</svg>