<?xml version="1.0" encoding="utf-8"?>
<svg version="1.1" xmlns:xlink="http://www.w3.org/1999/xlink" width="25px" height="24px" xmlns="http://www.w3.org/2000/svg">
  <g transform="matrix(1 0 0 1 -1842 -4526 )">
    <path d="M 24.8697916666667 8.2704811443433  C 24.9565972222222 8.45773732119636  25 8.69700910273082  25 8.98829648894668  L 25 14.9804941482445  C 25 15.2717815344603  24.9565972222222 15.5110533159948  24.8697916666667 15.6983094928479  C 24.7829861111111 15.8855656697009  24.6720679012346 15.9791937581274  24.537037037037 16  L 6.48148148148148 16  L 6.48148148148148 22.9700910273082  C 6.48148148148148 23.407022106632  6.38985339506173 23.7087126137841  6.20659722222222 23.8751625487646  C 6.02334104938272 24.0416124837451  5.8545524691358 23.9895968790637  5.70023148148148 23.7191157347204  L 0.144675925925926 12.7958387516255  C 0.0482253086419754 12.5877763328999  0 12.3485045513654  0 12.0780234070221  C 0 11.7867360208062  0.0482253086419754 11.5370611183355  0.144675925925926 11.3289986996099  L 5.70023148148148 0.280884265279584  C 5.8545524691358 -0.0104031209362869  6.02334104938272 -0.0728218465539712  6.20659722222222 0.093628088426529  C 6.38985339506173 0.280884265279584  6.48148148148148 0.582574772431729  6.48148148148148 0.998699609882964  L 6.48148148148148 8  L 24.537037037037 8  C 24.6720679012346 7.98959687906372  24.7829861111111 8.08322496749025  24.8697916666667 8.2704811443433  Z " fill-rule="nonzero" fill="#f1ca89" stroke="none" transform="matrix(1 0 0 1 1842 4526 )" />
  </g>
</svg>