<?xml version="1.0" encoding="utf-8"?>
<svg version="1.1" xmlns:xlink="http://www.w3.org/1999/xlink" width="21px" height="19px" xmlns="http://www.w3.org/2000/svg">
  <g transform="matrix(1 0 0 1 -1767 -4529 )">
    <path d="M 3 2.66  C 4.953125 2.66  6.5546875 3.550625  7.8046875 5.331875  C 7.3359375 6.06020833333333  6.80078125 7.14083333333333  6.19921875 8.57375  C 6.02734375 8.2175  5.8828125 7.93052083333333  5.765625 7.7128125  C 5.6484375 7.49510416666667  5.490234375 7.24375  5.291015625 6.95875  C 5.091796875 6.67375  4.892578125 6.45010416666666  4.693359375 6.2878125  C 4.494140625 6.12552083333333  4.248046875 5.98697916666666  3.955078125 5.8721875  C 3.662109375 5.75739583333333  3.34375 5.7  3 5.7  L 0.375 5.7  C 0.265625 5.7  0.17578125 5.664375  0.10546875 5.593125  C 0.03515625 5.521875  0 5.43083333333333  0 5.32  L 0 3.04  C 0 2.92916666666666  0.03515625 2.838125  0.10546875 2.766875  C 0.17578125 2.695625  0.265625 2.66  0.375 2.66  L 3 2.66  Z M 20.89453125 14.546875  C 20.96484375 14.618125  21 14.7091666666667  21 14.82  C 21 14.9308333333333  20.96484375 15.021875  20.89453125 15.093125  L 17.14453125 18.893125  C 17.07421875 18.964375  16.984375 19  16.875 19  C 16.7734375 19  16.685546875 18.9623958333333  16.611328125 18.8871875  C 16.537109375 18.8119791666667  16.5 18.7229166666667  16.5 18.62  L 16.5 16.34  C 16.25 16.34  15.91796875 16.3419791666667  15.50390625 16.3459375  C 15.08984375 16.3498958333333  14.7734375 16.3538541666667  14.5546875 16.3578125  C 14.3359375 16.3617708333333  14.05078125 16.3578125  13.69921875 16.3459375  C 13.34765625 16.3340625  13.0703125 16.3142708333333  12.8671875 16.2865625  C 12.6640625 16.2588541666667  12.4140625 16.2172916666667  12.1171875 16.161875  C 11.8203125 16.1064583333333  11.57421875 16.0332291666667  11.37890625 15.9421875  C 11.18359375 15.8511458333333  10.95703125 15.7383333333333  10.69921875 15.60375  C 10.44140625 15.4691666666667  10.2109375 15.3108333333333  10.0078125 15.12875  C 9.8046875 14.9466666666667  9.58984375 14.7348958333333  9.36328125 14.4934375  C 9.13671875 14.2519791666667  8.91796875 13.976875  8.70703125 13.668125  C 9.16796875 12.931875  9.69921875 11.85125  10.30078125 10.42625  C 10.47265625 10.7825  10.6171875 11.0694791666667  10.734375 11.2871875  C 10.8515625 11.5048958333333  11.009765625 11.75625  11.208984375 12.04125  C 11.408203125 12.32625  11.607421875 12.5498958333333  11.806640625 12.7121875  C 12.005859375 12.8744791666667  12.251953125 13.0130208333333  12.544921875 13.1278125  C 12.837890625 13.2426041666667  13.15625 13.3  13.5 13.3  L 16.5 13.3  L 16.5 11.02  C 16.5 10.9091666666667  16.53515625 10.818125  16.60546875 10.746875  C 16.67578125 10.675625  16.765625 10.64  16.875 10.64  C 16.96875 10.64  17.0625 10.6795833333333  17.15625 10.75875  L 20.89453125 14.546875  Z M 20.89453125 3.906875  C 20.96484375 3.978125  21 4.06916666666667  21 4.18  C 21 4.29083333333333  20.96484375 4.381875  20.89453125 4.453125  L 17.14453125 8.253125  C 17.07421875 8.324375  16.984375 8.36  16.875 8.36  C 16.7734375 8.36  16.685546875 8.32239583333333  16.611328125 8.2471875  C 16.537109375 8.17197916666667  16.5 8.08291666666666  16.5 7.98  L 16.5 5.7  L 13.5 5.7  C 13.125 5.7  12.78515625 5.759375  12.48046875 5.878125  C 12.17578125 5.996875  11.90625 6.175  11.671875 6.4125  C 11.4375 6.65  11.23828125 6.8934375  11.07421875 7.1428125  C 10.91015625 7.3921875  10.734375 7.69895833333333  10.546875 8.063125  C 10.296875 8.55395833333333  9.9921875 9.23083333333333  9.6328125 10.09375  C 9.40625 10.61625  9.212890625 11.055625  9.052734375 11.411875  C 8.892578125 11.768125  8.681640625 12.18375  8.419921875 12.65875  C 8.158203125 13.13375  7.908203125 13.5295833333333  7.669921875 13.84625  C 7.431640625 14.1629166666667  7.142578125 14.4914583333333  6.802734375 14.831875  C 6.462890625 15.1722916666667  6.111328125 15.4434375  5.748046875 15.6453125  C 5.384765625 15.8471875  4.96875 16.0134375  4.5 16.1440625  C 4.03125 16.2746875  3.53125 16.34  3 16.34  L 0.375 16.34  C 0.265625 16.34  0.17578125 16.304375  0.10546875 16.233125  C 0.03515625 16.161875  0 16.0708333333333  0 15.96  L 0 13.68  C 0 13.5691666666667  0.03515625 13.478125  0.10546875 13.406875  C 0.17578125 13.335625  0.265625 13.3  0.375 13.3  L 3 13.3  C 3.375 13.3  3.71484375 13.240625  4.01953125 13.121875  C 4.32421875 13.003125  4.59375 12.825  4.828125 12.5875  C 5.0625 12.35  5.26171875 12.1065625  5.42578125 11.8571875  C 5.58984375 11.6078125  5.765625 11.3010416666667  5.953125 10.936875  C 6.203125 10.4460416666667  6.5078125 9.76916666666667  6.8671875 8.90625  C 7.09375 8.38375  7.287109375 7.944375  7.447265625 7.588125  C 7.607421875 7.231875  7.818359375 6.81625  8.080078125 6.34125  C 8.341796875 5.86625  8.591796875 5.47041666666667  8.830078125 5.15375  C 9.068359375 4.83708333333333  9.357421875 4.50854166666667  9.697265625 4.168125  C 10.037109375 3.82770833333333  10.388671875 3.5565625  10.751953125 3.3546875  C 11.115234375 3.1528125  11.53125 2.9865625  12 2.8559375  C 12.46875 2.7253125  12.96875 2.66  13.5 2.66  L 16.5 2.66  L 16.5 0.38  C 16.5 0.269166666666664  16.53515625 0.178125  16.60546875 0.106875  C 16.67578125 0.0356249999999992  16.765625 0  16.875 0  C 16.96875 0  17.0625 0.0395833333333332  17.15625 0.11875  L 20.89453125 3.906875  Z " fill-rule="nonzero" fill="#f1ca89" stroke="none" transform="matrix(1 0 0 1 1767 4529 )" />
  </g>
</svg>