<?xml version="1.0" encoding="utf-8"?>
<svg version="1.1" xmlns:xlink="http://www.w3.org/1999/xlink" width="25px" height="24px" xmlns="http://www.w3.org/2000/svg">
  <g transform="matrix(1 0 0 1 -2001 -4526 )">
    <path d="M 24.8553240740741 11.2041612483745  C 24.951774691358 11.4122236671001  25 11.6514954486346  25 11.9219765929779  C 25 12.2132639791938  24.951774691358 12.4629388816645  24.8553240740741 12.6710013003901  L 19.2997685185185 23.7191157347204  C 19.1454475308642 24.0104031209363  18.9766589506173 24.072821846554  18.7934027777778 23.9063719115735  C 18.6101466049383 23.7191157347204  18.5185185185185 23.4174252275683  18.5185185185185 23.001300390117  L 18.5185185185185 16  L 0.462962962962963 16  C 0.327932098765432 16.0104031209363  0.217013888888889 15.9167750325098  0.130208333333333 15.7295188556567  C 0.0434027777777778 15.5422626788036  0 15.3029908972692  0 15.0117035110533  L 0 9.01950585175553  C 0 8.72821846553966  0.0434027777777778 8.4889466840052  0.130208333333333 8.30169050715215  C 0.217013888888889 8.11443433029909  0.327932098765432 8.02080624187256  0.462962962962963 8  L 18.5185185185185 8  L 18.5185185185185 1.02990897269181  C 18.5185185185185 0.592977893368011  18.6101466049383 0.291287386215863  18.7934027777778 0.124837451235371  C 18.9766589506173 -0.0416124837451264  19.1454475308642 0.0104031209362789  19.2997685185185 0.280884265279584  L 24.8553240740741 11.2041612483745  Z " fill-rule="nonzero" fill="#f1ca89" stroke="none" transform="matrix(1 0 0 1 2001 4526 )" />
  </g>
</svg>