<?xml version="1.0" encoding="utf-8"?>
<svg version="1.1" xmlns:xlink="http://www.w3.org/1999/xlink" width="25px" height="18px" xmlns="http://www.w3.org/2000/svg">
  <g transform="matrix(1 0 0 1 -2061 -4530 )">
    <path d="M 1.78571428571429 9  C 3.33891369047619 11.3035714285714  5.32459077380952 12.9776785714286  7.74274553571429 14.0223214285714  L 8.83091517857143 12.1339285714286  C 8.02176339285714 11.5714285714286  7.38932291666667 10.8616071428571  6.93359375 10.0044642857143  C 6.47786458333333 9.14732142857143  6.25 8.24107142857143  6.25 7.28571428571429  C 6.25 6.20535714285714  6.53366815476191 5.20089285714286  7.10100446428571 4.27232142857143  C 4.97116815476191 5.31696428571429  3.19940476190476 6.89285714285714  1.78571428571429 9  Z M 12.9743303571429 4.3125  C 13.1045386904762 4.1875  13.1696428571429 4.03571428571429  13.1696428571429 3.85714285714286  C 13.1696428571429 3.67857142857143  13.1045386904762 3.52678571428571  12.9743303571429 3.40178571428571  C 12.8441220238095 3.27678571428571  12.6860119047619 3.21428571428571  12.5 3.21428571428571  C 11.3374255952381 3.21428571428571  10.3399367559524 3.61383928571429  9.50753348214286 4.41294642857143  C 8.67513020833333 5.21205357142857  8.25892857142857 6.16964285714286  8.25892857142857 7.28571428571429  C 8.25892857142857 7.46428571428571  8.32403273809524 7.61607142857143  8.45424107142857 7.74107142857143  C 8.58444940476191 7.86607142857143  8.74255952380953 7.92857142857143  8.92857142857143 7.92857142857143  C 9.11458333333333 7.92857142857143  9.27269345238095 7.86607142857143  9.40290178571429 7.74107142857143  C 9.53311011904762 7.61607142857143  9.59821428571429 7.46428571428571  9.59821428571429 7.28571428571429  C 9.59821428571429 6.51785714285714  9.88188244047619 5.86160714285714  10.44921875 5.31696428571429  C 11.0165550595238 4.77232142857143  11.7001488095238 4.5  12.5 4.5  C 12.6860119047619 4.5  12.8441220238095 4.4375  12.9743303571429 4.3125  Z M 18.0106026785714 0.937500000000001  C 18.159412202381 1.02678571428571  18.2338169642857 1.14732142857143  18.2338169642857 1.29910714285714  C 18.2338169642857 1.36160714285714  18.2291666666667 1.40178571428571  18.2198660714286 1.41964285714286  C 17.2340029761905 3.10714285714286  15.7645089285714 5.63839285714286  13.8113839285714 9.01339285714286  C 11.8582589285714 12.3883928571429  10.3934151785714 14.9151785714286  9.41685267857143 16.59375  L 8.73325892857143 17.7857142857143  C 8.64025297619048 17.9285714285714  8.51004464285714 18  8.34263392857143 18  C 8.23102678571429 18  7.60788690476191 17.6875  6.47321428571429 17.0625  C 6.32440476190476 16.9732142857143  6.25 16.8482142857143  6.25 16.6875  C 6.25 16.5803571428571  6.4546130952381 16.1919642857143  6.86383928571429 15.5223214285714  C 5.53385416666667 14.9419642857143  4.30850074404762 14.1696428571429  3.18777901785714 13.2053571428571  C 2.06705729166667 12.2410714285714  1.09747023809524 11.1473214285714  0.279017857142857 9.92410714285714  C 0.0930059523809524 9.64732142857143  0 9.33928571428571  0 9  C 0 8.66071428571428  0.0930059523809524 8.35267857142857  0.279017857142857 8.07589285714286  C 1.70200892857143 5.97767857142857  3.46912202380952 4.32142857142857  5.58035714285714 3.10714285714286  C 7.69159226190476 1.89285714285714  9.99813988095238 1.28571428571429  12.5 1.28571428571429  C 13.3277529761905 1.28571428571429  14.164806547619 1.36160714285714  15.0111607142857 1.51339285714286  L 15.7645089285714 0.214285714285714  C 15.8575148809524 0.0714285714285712  15.9877232142857 0  16.1551339285714 0  C 16.2016369047619 0  16.2853422619048 0.0267857142857142  16.40625 0.0803571428571426  C 16.5271577380952 0.133928571428571  16.6713169642857 0.203124999999998  16.8387276785714 0.287946428571429  C 17.0061383928571 0.372767857142856  17.1595982142857 0.455357142857143  17.2991071428571 0.535714285714286  C 17.4386160714286 0.616071428571428  17.5851004464286 0.698660714285711  17.7385602678571 0.783482142857143  C 17.8920200892857 0.86830357142857  17.9827008928571 0.919642857142856  18.0106026785714 0.937500000000001  Z M 18.6383928571429 6.16071428571429  C 18.7127976190476 6.5625  18.75 6.9375  18.75 7.28571428571429  C 18.75 8.52678571428571  18.3826264880952 9.65848214285714  17.6478794642857 10.6808035714286  C 16.9131324404762 11.703125  15.9412202380952 12.4375  14.7321428571429 12.8839285714286  L 18.6383928571429 6.16071428571429  Z M 24.7209821428571 8.07589285714286  C 24.9069940476191 8.37946428571428  25 8.6875  25 9  C 25 9.3125  24.9069940476191 9.62053571428571  24.7209821428571 9.92410714285714  C 24.3582589285714 10.4955357142857  23.8513764880952 11.1428571428571  23.2003348214286 11.8660714285714  C 21.8052455357143 13.4017857142857  20.1892671130952 14.59375  18.3523995535714 15.4419642857143  C 16.5155319940476 16.2901785714286  14.5647321428571 16.7142857142857  12.5 16.7142857142857  L 13.5323660714286 14.9464285714286  C 15.5040922619048 14.7857142857143  17.329334077381 14.1741071428571  19.0080915178571 13.1116071428571  C 20.6868489583333 12.0491071428571  22.0889136904762 10.6785714285714  23.2142857142857 9  C 22.1447172619048 7.40178571428571  20.8333333333333 6.08928571428571  19.2801339285714 5.0625  L 20.1590401785714 3.5625  C 21.0425967261905 4.13392857142857  21.8912760416667 4.81696428571428  22.705078125 5.61160714285714  C 23.5188802083333 6.40625  24.1908482142857 7.22767857142857  24.7209821428571 8.07589285714286  Z " fill-rule="nonzero" fill="#f1ca89" stroke="none" transform="matrix(1 0 0 1 2061 4530 )" />
  </g>
</svg>