<?xml version="1.0" encoding="utf-8"?>
<svg version="1.1" xmlns:xlink="http://www.w3.org/1999/xlink" width="36px" height="38px" xmlns="http://www.w3.org/2000/svg">
  <g transform="matrix(1 0 0 1 -1914 -4520 )">
    <path d="M 27 17.6393229166667  C 27.5 17.9361979166667  27.75 18.3897569444444  27.75 19  C 27.75 19.6102430555556  27.5 20.0638020833333  27 20.3606770833333  L 14.25 28.27734375  C 14.015625 28.42578125  13.765625 28.5  13.5 28.5  C 13.25 28.5  13 28.4340277777778  12.75 28.3020833333333  C 12.25 27.9887152777778  12 27.5269097222222  12 26.9166666666667  L 12 11.0833333333333  C 12 10.4730902777778  12.25 10.0112847222222  12.75 9.69791666666667  C 13.265625 9.40104166666667  13.765625 9.40928819444444  14.25 9.72265625  L 27 17.6393229166667  Z M 29.0390625 25.75390625  C 30.1796875 23.6922743055556  30.75 21.4409722222222  30.75 19  C 30.75 16.5590277777778  30.1796875 14.3077256944444  29.0390625 12.24609375  C 27.8984375 10.1844618055556  26.3515625 8.55164930555555  24.3984375 7.34765625  C 22.4453125 6.14366319444444  20.3125 5.54166666666667  18 5.54166666666667  C 15.6875 5.54166666666667  13.5546875 6.14366319444444  11.6015625 7.34765625  C 9.6484375 8.55164930555555  8.1015625 10.1844618055556  6.9609375 12.24609375  C 5.8203125 14.3077256944444  5.25 16.5590277777778  5.25 19  C 5.25 21.4409722222222  5.8203125 23.6922743055556  6.9609375 25.75390625  C 8.1015625 27.8155381944444  9.6484375 29.4483506944444  11.6015625 30.65234375  C 13.5546875 31.8563368055556  15.6875 32.4583333333333  18 32.4583333333333  C 20.3125 32.4583333333333  22.4453125 31.8563368055556  24.3984375 30.65234375  C 26.3515625 29.4483506944444  27.8984375 27.8155381944444  29.0390625 25.75390625  Z M 33.5859375 9.462890625  C 35.1953125 12.3739149305556  36 15.5529513888889  36 19  C 36 22.4470486111111  35.1953125 25.6260850694444  33.5859375 28.537109375  C 31.9765625 31.4481336805556  29.79296875 33.7530381944444  27.03515625 35.4518229166667  C 24.27734375 37.1506076388889  21.265625 38  18 38  C 14.734375 38  11.72265625 37.1506076388889  8.96484375 35.4518229166667  C 6.20703125 33.7530381944444  4.0234375 31.4481336805556  2.4140625 28.537109375  C 0.8046875 25.6260850694444  0 22.4470486111111  0 19  C 0 15.5529513888889  0.8046875 12.3739149305556  2.4140625 9.462890625  C 4.0234375 6.55186631944444  6.20703125 4.24696180555555  8.96484375 2.54817708333333  C 11.72265625 0.849392361111108  14.734375 0  18 0  C 21.265625 0  24.27734375 0.849392361111108  27.03515625 2.54817708333333  C 29.79296875 4.24696180555555  31.9765625 6.55186631944444  33.5859375 9.462890625  Z " fill-rule="nonzero" fill="#519956" stroke="none" transform="matrix(1 0 0 1 1914 4520 )" />
  </g>
</svg>