<?xml version="1.0" encoding="utf-8"?>
<svg version="1.1" xmlns:xlink="http://www.w3.org/1999/xlink" width="9px" height="9px" xmlns="http://www.w3.org/2000/svg">
  <g transform="matrix(1 0 0 1 -1353 -5246 )">
    <path d="M 1357.5 5246  C 1360.02 5246  1362 5247.98  1362 5250.5  C 1362 5253.02  1360.02 5255  1357.5 5255  C 1354.98 5255  1353 5253.02  1353 5250.5  C 1353 5247.98  1354.98 5246  1357.5 5246  Z " fill-rule="nonzero" fill="#519956" stroke="none" />
    <path d="M 1357.5 5246.5  C 1359.74 5246.5  1361.5 5248.26  1361.5 5250.5  C 1361.5 5252.74  1359.74 5254.5  1357.5 5254.5  C 1355.26 5254.5  1353.5 5252.74  1353.5 5250.5  C 1353.5 5248.26  1355.26 5246.5  1357.5 5246.5  Z " stroke-width="1" stroke="#519956" fill="none" />
  </g>
</svg>