<?xml version="1.0" encoding="utf-8"?>
<svg version="1.1" xmlns:xlink="http://www.w3.org/1999/xlink" width="20px" height="22px" xmlns="http://www.w3.org/2000/svg">
  <g transform="matrix(1 0 0 1 -354 -2972 )">
    <path d="M 17.5142045454545 2.734375  C 17.0691287878788 2.24479166666666  16.5340909090909 2  15.9090909090909 2  L 4.09090909090909 2  C 3.46590909090909 2  2.93087121212121 2.24479166666666  2.48579545454545 2.734375  C 2.0407196969697 3.22395833333333  1.81818181818182 3.8125  1.81818181818182 4.5  L 1.81818181818182 17.5  C 1.81818181818182 18.1875  2.0407196969697 18.7760416666667  2.48579545454545 19.265625  C 2.93087121212121 19.7552083333333  3.46590909090909 20  4.09090909090909 20  L 15.9090909090909 20  C 16.5340909090909 20  17.0691287878788 19.7552083333333  17.5142045454545 19.265625  C 17.9592803030303 18.7760416666667  18.1818181818182 18.1875  18.1818181818182 17.5  L 18.1818181818182 4.5  C 18.1818181818182 3.8125  17.9592803030303 3.22395833333333  17.5142045454545 2.734375  Z M 18.7997159090909 1.3203125  C 19.5999053030303 2.20052083333333  20 3.26041666666666  20 4.5  L 20 17.5  C 20 18.7395833333333  19.5999053030303 19.7994791666667  18.7997159090909 20.6796875  C 17.9995265151515 21.5598958333333  17.0359848484849 22  15.9090909090909 22  L 4.09090909090909 22  C 2.96401515151515 22  2.00047348484849 21.5598958333333  1.20028409090909 20.6796875  C 0.400094696969697 19.7994791666667  0 18.7395833333333  0 17.5  L 0 4.5  C 0 3.26041666666666  0.400094696969697 2.20052083333333  1.20028409090909 1.3203125  C 2.00047348484849 0.440104166666665  2.96401515151515 0  4.09090909090909 0  L 15.9090909090909 0  C 17.0359848484849 0  17.9995265151515 0.440104166666665  18.7997159090909 1.3203125  Z " fill-rule="nonzero" fill="#7f7f7f" stroke="none" transform="matrix(1 0 0 1 354 2972 )" />
  </g>
</svg>