<?xml version="1.0" encoding="utf-8"?>
<svg version="1.1" xmlns:xlink="http://www.w3.org/1999/xlink" width="18px" height="15px" xmlns="http://www.w3.org/2000/svg">
  <g transform="matrix(1 0 0 1 -2270 -4140 )">
    <path d="M 16.7142857142857 1.24837451235371  L 16.7142857142857 4.99349804941482  C 17.0691964285714 4.99349804941482  17.3722098214286 5.11540962288687  17.6233258928571 5.35923276983095  C 17.8744419642857 5.60305591677503  18 5.89726918075423  18 6.24187256176853  C 18 6.58647594278283  17.8744419642857 6.88068920676203  17.6233258928571 7.12451235370611  C 17.3722098214286 7.36833550065019  17.0691964285714 7.49024707412224  16.7142857142857 7.49024707412224  L 16.7142857142857 11.2353706111834  C 16.7142857142857 11.5734720416125  16.5870535714286 11.8660598179454  16.3325892857143 12.1131339401821  C 16.078125 12.3602080624187  15.7767857142857 12.4837451235371  15.4285714285714 12.4837451235371  C 12.6361607142857 10.2275682704811  9.91741071428572 8.99219765929779  7.27232142857143 8.777633289987  C 6.88392857142857 8.90117035110533  6.57924107142857 9.11573472041612  6.35825892857143 9.42132639791938  C 6.13727678571429 9.72691807542263  6.03348214285714 10.0536410923277  6.046875 10.4014954486346  C 6.06026785714286 10.7493498049415  6.19419642857143 11.0500650195059  6.44866071428571 11.3036410923277  C 6.31473214285714 11.5182054616385  6.23772321428571 11.731144343303  6.21763392857143 11.9424577373212  C 6.19754464285714 12.1537711313394  6.21763392857143 12.3423276983095  6.27790178571429 12.5081274382315  C 6.33816964285714 12.6739271781534  6.45033482142857 12.8527308192458  6.61439732142857 13.0445383615085  C 6.77845982142857 13.2363459037711  6.93917410714286 13.3988946684005  7.09654017857143 13.5321846553966  C 7.25390625 13.6654746423927  7.45982142857143 13.8296488946684  7.71428571428571 14.0247074122237  C 7.52008928571429 14.4018205461638  7.14676339285714 14.6716514954486  6.59430803571429 14.834200260078  C 6.04185267857143 14.9967490247074  5.47767857142857 15.0341352405722  4.90178571428571 14.9463589076723  C 4.32589285714286 14.8585825747724  3.88392857142857 14.6781534460338  3.57589285714286 14.4050715214564  C 3.52901785714286 14.2555266579974  3.43024553571429 13.971066319896  3.27957589285714 13.5516905071521  C 3.12890625 13.1323146944083  3.02176339285714 12.8250975292588  2.95814732142857 12.6300390117035  C 2.89453125 12.4349804941482  2.81752232142857 12.1456436931079  2.72712053571429 11.7620286085826  C 2.63671875 11.3784135240572  2.58649553571429 11.0500650195059  2.57645089285714 10.7769830949285  C 2.56640625 10.5039011703511  2.578125 10.1836801040312  2.61160714285714 9.81631989596879  C 2.64508928571429 9.44895968790637  2.71875 9.08972691807542  2.83258928571429 8.73862158647594  L 1.60714285714286 8.73862158647594  C 1.16517857142857 8.73862158647594  0.786830357142857 8.58582574772432  0.472098214285714 8.28023407022107  C 0.157366071428571 7.97464239271781  0 7.6072821846554  0 7.17815344603381  L 0 5.30559167750325  C 0 4.87646293888166  0.157366071428571 4.50910273081924  0.472098214285714 4.20351105331599  C 0.786830357142857 3.89791937581274  1.16517857142857 3.74512353706112  1.60714285714286 3.74512353706112  L 6.42857142857143 3.74512353706112  C 9.34151785714286 3.74512353706112  12.3415178571429 2.49674902470741  15.4285714285714 0  C 15.7767857142857 0  16.078125 0.123537061118334  16.3325892857143 0.370611183355007  C 16.5870535714286 0.617685305591676  16.7142857142857 0.910273081924576  16.7142857142857 1.24837451235371  Z M 7.71428571428571 7.55851755526658  C 10.2388392857143 7.83159947984395  12.8102678571429 8.94018205461638  15.4285714285714 10.8842652795839  L 15.4285714285714 1.57997399219766  C 12.7901785714286 3.54356306892068  10.21875 4.65864759427828  7.71428571428571 4.92522756827048  L 7.71428571428571 7.55851755526658  Z " fill-rule="nonzero" fill="#519956" stroke="none" transform="matrix(1 0 0 1 2270 4140 )" />
  </g>
</svg>