<?xml version="1.0" encoding="utf-8"?>
<svg version="1.1" xmlns:xlink="http://www.w3.org/1999/xlink" width="26px" height="29px" xmlns="http://www.w3.org/2000/svg">
  <g transform="matrix(1 0 0 1 -1216 -1821 )">
    <path d="M 19.5677083333333 1.10044642857143  L 24.8489583333333 6.14955357142857  C 25.1649305555556 6.4516369047619  25.4357638888889 6.86160714285714  25.6614583333333 7.37946428571429  C 25.8871527777778 7.89732142857143  26 8.37202380952381  26 8.80357142857143  L 26 27.4464285714286  C 26 27.8779761904762  25.8420138888889 28.2447916666667  25.5260416666667 28.546875  C 25.2100694444444 28.8489583333333  24.8263888888889 29  24.375 29  L 1.625 29  C 1.17361111111111 29  0.789930555555556 28.8489583333333  0.473958333333333 28.546875  C 0.157986111111111 28.2447916666667  0 27.8779761904762  0 27.4464285714286  L 0 1.55357142857143  C 0 1.12202380952381  0.157986111111111 0.755208333333332  0.473958333333333 0.453125  C 0.789930555555556 0.151041666666668  1.17361111111111 0  1.625 0  L 16.7916666666667 0  C 17.2430555555556 0  17.7395833333333 0.107886904761906  18.28125 0.323660714285715  C 18.8229166666667 0.539434523809524  19.2517361111111 0.798363095238094  19.5677083333333 1.10044642857143  Z M 18.02734375 2.55691964285714  C 17.8919270833333 2.42745535714286  17.6605902777778 2.30877976190476  17.3333333333333 2.20089285714286  L 17.3333333333333 8.28571428571428  L 23.6979166666667 8.28571428571428  C 23.5850694444444 7.97284226190476  23.4609375 7.75167410714286  23.3255208333333 7.62220982142857  L 18.02734375 2.55691964285714  Z M 2.16666666666667 27  L 23.8333333333333 27  L 23.8333333333333 10.3571428571429  L 16.7916666666667 10.3571428571429  C 16.3402777777778 10.3571428571429  15.9565972222222 10.2061011904762  15.640625 9.90401785714286  C 15.3246527777778 9.60193452380952  15.1666666666667 9.23511904761904  15.1666666666667 8.80357142857143  L 15.1666666666667 2  L 2.16666666666667 2  L 2.16666666666667 27  Z M 12.6614583333333 13.48046875  C 13.2821180555556 15.2498139880952  14.1059027777778 16.5336681547619  15.1328125 17.33203125  C 15.5052083333333 17.612537202381  15.9791666666667 17.9146205357143  16.5546875 18.23828125  C 17.2204861111111 18.1627604166667  17.8806423611111 18.125  18.53515625 18.125  C 20.1940104166667 18.125  21.1927083333333 18.3893229166667  21.53125 18.91796875  C 21.7118055555556 19.1553199404762  21.7230902777778 19.4358258928571  21.5651041666667 19.7594866071429  C 21.5651041666667 19.770275297619  21.5594618055556 19.7810639880952  21.5481770833333 19.7918526785714  L 21.5143229166667 19.82421875  L 21.5143229166667 19.8404017857143  C 21.4466145833333 20.2503720238095  21.0460069444444 20.4553571428571  20.3125 20.4553571428571  C 19.7708333333333 20.4553571428571  19.1219618055556 20.3474702380952  18.3658854166667 20.1316964285714  C 17.6098090277778 19.9159226190476  16.8763020833333 19.6300223214286  16.1653645833333 19.2739955357143  C 13.6714409722222 19.5329241071429  11.4596354166667 19.9806547619048  9.52994791666667 20.6171875  C 7.80338541666667 23.4438244047619  6.43793402777778 24.8571428571429  5.43359375 24.8571428571429  C 5.26432291666667 24.8571428571429  5.10633680555556 24.8193824404762  4.95963541666667 24.7438616071429  L 4.55338541666667 24.5496651785714  C 4.54210069444444 24.5388764880952  4.50824652777778 24.5119047619048  4.45182291666667 24.46875  C 4.33897569444444 24.3608630952381  4.30512152777778 24.1666666666667  4.35026041666667 23.8861607142857  C 4.45182291666667 23.4546130952381  4.76779513888889 22.9610305059524  5.29817708333333 22.4054129464286  C 5.82855902777778 21.8497953869048  6.57335069444444 21.3292410714286  7.53255208333333 20.84375  C 7.69053819444444 20.7466517857143  7.8203125 20.7790178571429  7.921875 20.9408482142857  C 7.94444444444444 20.9624255952381  7.95572916666667 20.9840029761905  7.95572916666667 21.0055803571429  C 8.54253472222222 20.0885416666667  9.14626736111111 19.0258556547619  9.76692708333333 17.8175223214286  C 10.5342881944444 16.3502604166667  11.12109375 14.9369419642857  11.52734375 13.5775669642857  C 11.2565104166667 12.6928943452381  11.0844184027778 11.8324962797619  11.0110677083333 10.9963727678571  C 10.9377170138889 10.1602492559524  10.9743923611111 9.47247023809524  11.12109375 8.93303571428572  C 11.2452256944444 8.50148809523809  11.4822048611111 8.28571428571428  11.83203125 8.28571428571428  L 12.1875 8.28571428571428  L 12.2044270833333 8.28571428571428  C 12.4639756944444 8.28571428571428  12.6614583333333 8.36662946428572  12.796875 8.52845982142857  C 13 8.75502232142857  13.05078125 9.12183779761904  12.94921875 9.62890625  C 12.9266493055556 9.69363839285714  12.9040798611111 9.7367931547619  12.8815104166667 9.75837053571428  C 12.8927951388889 9.79073660714286  12.8984375 9.83389136904762  12.8984375 9.88783482142857  L 12.8984375 10.3733258928571  C 12.8758680555556 11.7003348214286  12.796875 12.7360491071429  12.6614583333333 13.48046875  Z M 6.220703125 22.7857142857143  C 5.80881076388889 23.2604166666667  5.52951388888889 23.6595982142857  5.3828125 23.9832589285714  C 5.96961805555556 23.7243303571429  6.74262152777778 22.8720238095238  7.70182291666667 21.4263392857143  C 7.12630208333333 21.8578869047619  6.63259548611111 22.3110119047619  6.220703125 22.7857142857143  Z M 12.1197916666667 9.0625  L 12.1197916666667 9.09486607142857  C 11.9505208333333 9.54799107142857  11.9392361111111 10.2600446428571  12.0859375 11.2310267857143  C 12.0972222222222 11.1555059523809  12.13671875 10.9181547619048  12.2044270833333 10.5189732142857  C 12.2044270833333 10.4866071428571  12.2439236111111 10.254650297619  12.3229166666667 9.82310267857143  C 12.3342013888889 9.77994791666666  12.3567708333333 9.7367931547619  12.390625 9.69363839285714  C 12.3793402777778 9.68284970238095  12.3736979166667 9.67206101190476  12.3736979166667 9.66127232142857  C 12.3624131944444 9.63969494047619  12.3567708333333 9.6235119047619  12.3567708333333 9.61272321428572  C 12.3454861111111 9.37537202380952  12.2721354166667 9.18117559523809  12.13671875 9.03013392857143  C 12.13671875 9.04092261904762  12.1310763888889 9.05171130952381  12.1197916666667 9.0625  Z M 10.7825520833333 18.4486607142857  C 10.4440104166667 19.0528273809524  10.1901041666667 19.5005580357143  10.0208333333333 19.7918526785714  C 11.5442708333333 19.2092633928571  13.1467013888889 18.7723214285714  14.828125 18.4810267857143  C 14.8055555555556 18.4702380952381  14.7322048611111 18.4189918154762  14.6080729166667 18.3272879464286  C 14.4839409722222 18.235584077381  14.3936631944444 18.1627604166667  14.3372395833333 18.1088169642857  C 13.4796006944444 17.385974702381  12.7630208333333 16.4365699404762  12.1875 15.2606026785714  C 11.8828125 16.1884300595238  11.4144965277778 17.2511160714286  10.7825520833333 18.4486607142857  Z M 20.9895833333333 19.5814732142857  C 20.9895833333333 19.5706845238095  20.9782986111111 19.5545014880952  20.9557291666667 19.5329241071429  C 20.6848958333333 19.2739955357143  19.8949652777778 19.14453125  18.5859375 19.14453125  C 19.4435763888889 19.4466145833333  20.1432291666667 19.59765625  20.6848958333333 19.59765625  C 20.8428819444444 19.59765625  20.9444444444444 19.5922619047619  20.9895833333333 19.5814732142857  Z " fill-rule="nonzero" fill="#a30014" stroke="none" transform="matrix(1 0 0 1 1216 1821 )" />
  </g>
</svg>