<?xml version="1.0" encoding="utf-8"?>
<svg version="1.1" xmlns:xlink="http://www.w3.org/1999/xlink" width="27px" height="27px" xmlns="http://www.w3.org/2000/svg">
  <g transform="matrix(1 0 0 1 -2542 -1242 )">
    <path d="M 25.927734375 8.26171875  C 26.642578125 9.92578125  27 11.671875  27 13.5  C 27 15.328125  26.642578125 17.07421875  25.927734375 18.73828125  C 25.212890625 20.40234375  24.251953125 21.837890625  23.044921875 23.044921875  C 21.837890625 24.251953125  20.40234375 25.212890625  18.73828125 25.927734375  C 17.07421875 26.642578125  15.328125 27  13.5 27  C 11.484375 27  9.568359375 26.5751953125  7.751953125 25.7255859375  C 5.935546875 24.8759765625  4.388671875 23.677734375  3.111328125 22.130859375  C 3.029296875 22.013671875  2.9912109375 21.8818359375  2.9970703125 21.7353515625  C 3.0029296875 21.5888671875  3.052734375 21.46875  3.146484375 21.375  L 5.5546875 18.94921875  C 5.671875 18.84375  5.818359375 18.791015625  5.994140625 18.791015625  C 6.181640625 18.814453125  6.31640625 18.884765625  6.3984375 19.001953125  C 7.25390625 20.115234375  8.302734375 20.9765625  9.544921875 21.5859375  C 10.787109375 22.1953125  12.10546875 22.5  13.5 22.5  C 14.71875 22.5  15.8818359375 22.2626953125  16.9892578125 21.7880859375  C 18.0966796875 21.3134765625  19.0546875 20.671875  19.86328125 19.86328125  C 20.671875 19.0546875  21.3134765625 18.0966796875  21.7880859375 16.9892578125  C 22.2626953125 15.8818359375  22.5 14.71875  22.5 13.5  C 22.5 12.28125  22.2626953125 11.1181640625  21.7880859375 10.0107421875  C 21.3134765625 8.9033203125  20.671875 7.9453125  19.86328125 7.13671875  C 19.0546875 6.328125  18.0966796875 5.6865234375  16.9892578125 5.2119140625  C 15.8818359375 4.7373046875  14.71875 4.5  13.5 4.5  C 12.3515625 4.5  11.25 4.7080078125  10.1953125 5.1240234375  C 9.140625 5.5400390625  8.203125 6.134765625  7.3828125 6.908203125  L 9.791015625 9.333984375  C 10.154296875 9.685546875  10.236328125 10.08984375  10.037109375 10.546875  C 9.837890625 11.015625  9.4921875 11.25  9 11.25  L 1.125 11.25  C 0.8203125 11.25  0.556640625 11.138671875  0.333984375 10.916015625  C 0.111328125 10.693359375  0 10.4296875  0 10.125  L 0 2.25  C 0 1.7578125  0.234375 1.412109375  0.703125 1.212890625  C 1.16015625 1.013671875  1.564453125 1.095703125  1.916015625 1.458984375  L 4.201171875 3.7265625  C 5.455078125 2.54296875  6.8876953125 1.6259765625  8.4990234375 0.9755859375  C 10.1103515625 0.325195312500001  11.77734375 0  13.5 0  C 15.328125 0  17.07421875 0.357421875  18.73828125 1.072265625  C 20.40234375 1.787109375  21.837890625 2.748046875  23.044921875 3.955078125  C 24.251953125 5.162109375  25.212890625 6.59765625  25.927734375 8.26171875  Z " fill-rule="nonzero" fill="#519956" stroke="none" transform="matrix(1 0 0 1 2542 1242 )" />
  </g>
</svg>