<?xml version="1.0" encoding="utf-8"?>
<svg version="1.1" xmlns:xlink="http://www.w3.org/1999/xlink" width="27px" height="27px" xmlns="http://www.w3.org/2000/svg">
  <g transform="matrix(1 0 0 1 -2455 -1242 )">
    <path d="M 26.666015625 0.333984374999999  C 26.888671875 0.556640624999996  27 0.820312499999996  27 1.125  L 27 25.875  C 27 26.1796875  26.888671875 26.443359375  26.666015625 26.666015625  C 26.443359375 26.888671875  26.1796875 27  25.875 27  L 16.875 27  C 16.5703125 27  16.306640625 26.888671875  16.083984375 26.666015625  C 15.861328125 26.443359375  15.75 26.1796875  15.75 25.875  L 15.75 1.125  C 15.75 0.820312499999996  15.861328125 0.556640624999996  16.083984375 0.333984374999999  C 16.306640625 0.111328124999999  16.5703125 0  16.875 0  L 25.875 0  C 26.1796875 0  26.443359375 0.111328124999999  26.666015625 0.333984374999999  Z M 10.916015625 0.333984374999999  C 11.138671875 0.556640624999996  11.25 0.820312499999996  11.25 1.125  L 11.25 25.875  C 11.25 26.1796875  11.138671875 26.443359375  10.916015625 26.666015625  C 10.693359375 26.888671875  10.4296875 27  10.125 27  L 1.125 27  C 0.8203125 27  0.556640625 26.888671875  0.333984375 26.666015625  C 0.111328125 26.443359375  0 26.1796875  0 25.875  L 0 1.125  C 0 0.820312499999996  0.111328125 0.556640624999996  0.333984375 0.333984374999999  C 0.556640625 0.111328124999999  0.8203125 0  1.125 0  L 10.125 0  C 10.4296875 0  10.693359375 0.111328124999999  10.916015625 0.333984374999999  Z " fill-rule="nonzero" fill="#519956" stroke="none" transform="matrix(1 0 0 1 2455 1242 )" />
  </g>
</svg>