<?xml version="1.0" encoding="utf-8"?>
<svg version="1.1" xmlns:xlink="http://www.w3.org/1999/xlink" width="258px" height="258px" xmlns="http://www.w3.org/2000/svg">
  <defs>
    <filter x="2343px" y="888px" width="258px" height="258px" filterUnits="userSpaceOnUse" id="filter32">
      <feOffset dx="2" dy="2" in="SourceAlpha" result="shadowOffsetInner" />
      <feGaussianBlur stdDeviation="2.5" in="shadowOffsetInner" result="shadowGaussian" />
      <feComposite in2="shadowGaussian" operator="atop" in="SourceAlpha" result="shadowComposite" />
      <feColorMatrix type="matrix" values="0 0 0 0 0  0 0 0 0 0  0 0 0 0 0  0 0 0 0.349019607843137 0  " in="shadowComposite" />
    </filter>
    <g id="widget33">
      <path d="M 2470 891  C 2539.44 891  2594 945.56  2594 1015  C 2594 1084.44  2539.44 1139  2470 1139  C 2400.56 1139  2346 1084.44  2346 1015  C 2346 945.56  2400.56 891  2470 891  Z " fill-rule="nonzero" fill="#facd91" stroke="none" />
      <path d="M 2470 891.5  C 2539.16 891.5  2593.5 945.84  2593.5 1015  C 2593.5 1084.16  2539.16 1138.5  2470 1138.5  C 2400.84 1138.5  2346.5 1084.16  2346.5 1015  C 2346.5 945.84  2400.84 891.5  2470 891.5  Z " stroke-width="1" stroke="#519956" fill="none" />
    </g>
  </defs>
  <g transform="matrix(1 0 0 1 -2343 -888 )">
    <use xlink:href="#widget33" filter="url(#filter32)" />
    <use xlink:href="#widget33" />
  </g>
</svg>