<?xml version="1.0" encoding="utf-8"?>
<svg version="1.1" xmlns:xlink="http://www.w3.org/1999/xlink" width="27px" height="27px" xmlns="http://www.w3.org/2000/svg">
  <g transform="matrix(1 0 0 1 -2369 -1242 )">
    <path d="M 25.5146484375 1.4853515625  C 26.5048828125 2.4755859375  27 3.66796875  27 5.0625  L 27 21.9375  C 27 23.33203125  26.5048828125 24.5244140625  25.5146484375 25.5146484375  C 24.5244140625 26.5048828125  23.33203125 27  21.9375 27  L 5.0625 27  C 3.66796875 27  2.4755859375 26.5048828125  1.4853515625 25.5146484375  C 0.4951171875 24.5244140625  0 23.33203125  0 21.9375  L 0 5.0625  C 0 3.66796875  0.4951171875 2.4755859375  1.4853515625 1.4853515625  C 2.4755859375 0.495117187499998  3.66796875 0  5.0625 0  L 21.9375 0  C 23.33203125 0  24.5244140625 0.495117187499998  25.5146484375 1.4853515625  Z " fill-rule="nonzero" fill="#519956" stroke="none" transform="matrix(1 0 0 1 2369 1242 )" />
  </g>
</svg>