<?xml version="1.0" encoding="utf-8"?>
<svg version="1.1" xmlns:xlink="http://www.w3.org/1999/xlink" width="24px" height="24px" xmlns="http://www.w3.org/2000/svg">
  <g transform="matrix(1 0 0 1 -2589 -456 )">
    <path d="M 2601 456  C 2607.72 456  2613 461.28  2613 468  C 2613 474.72  2607.72 480  2601 480  C 2594.28 480  2589 474.72  2589 468  C 2589 461.28  2594.28 456  2601 456  Z " fill-rule="nonzero" fill="#fcf9f3" stroke="none" />
    <path d="M 2601 456.5  C 2607.44 456.5  2612.5 461.56  2612.5 468  C 2612.5 474.44  2607.44 479.5  2601 479.5  C 2594.56 479.5  2589.5 474.44  2589.5 468  C 2589.5 461.56  2594.56 456.5  2601 456.5  Z " stroke-width="1" stroke="#519956" fill="none" />
  </g>
</svg>