<?xml version="1.0" encoding="utf-8"?>
<svg version="1.1" xmlns:xlink="http://www.w3.org/1999/xlink" width="158px" height="158px" xmlns="http://www.w3.org/2000/svg">
  <defs>
    <filter x="1773px" y="1096px" width="158px" height="158px" filterUnits="userSpaceOnUse" id="filter34">
      <feOffset dx="2" dy="2" in="SourceAlpha" result="shadowOffsetInner" />
      <feGaussianBlur stdDeviation="2.5" in="shadowOffsetInner" result="shadowGaussian" />
      <feComposite in2="shadowGaussian" operator="atop" in="SourceAlpha" result="shadowComposite" />
      <feColorMatrix type="matrix" values="0 0 0 0 0  0 0 0 0 0  0 0 0 0 0  0 0 0 0.349019607843137 0  " in="shadowComposite" />
    </filter>
    <g id="widget35">
      <path d="M 1850 1099  C 1891.44 1099  1924 1131.56  1924 1173  C 1924 1214.44  1891.44 1247  1850 1247  C 1808.56 1247  1776 1214.44  1776 1173  C 1776 1131.56  1808.56 1099  1850 1099  Z " fill-rule="nonzero" fill="#fcf9f3" stroke="none" />
      <path d="M 1850 1099.5  C 1891.16 1099.5  1923.5 1131.84  1923.5 1173  C 1923.5 1214.16  1891.16 1246.5  1850 1246.5  C 1808.84 1246.5  1776.5 1214.16  1776.5 1173  C 1776.5 1131.84  1808.84 1099.5  1850 1099.5  Z " stroke-width="1" stroke="#797979" fill="none" />
    </g>
  </defs>
  <g transform="matrix(1 0 0 1 -1773 -1096 )">
    <use xlink:href="#widget35" filter="url(#filter34)" />
    <use xlink:href="#widget35" />
  </g>
</svg>