<?xml version="1.0" encoding="utf-8"?>
<svg version="1.1" xmlns:xlink="http://www.w3.org/1999/xlink" width="21px" height="21px" xmlns="http://www.w3.org/2000/svg">
  <g transform="matrix(1 0 0 1 -1560 -799 )">
    <path d="M 16.39453125 12.373046875  C 16.46484375 12.455078125  16.5 12.5598958333333  16.5 12.6875  L 16.5 17.0625  C 16.5 18.1471354166667  16.169921875 19.0745442708333  15.509765625 19.8447265625  C 14.849609375 20.6149088541667  14.0546875 21  13.125 21  L 3.375 21  C 2.4453125 21  1.650390625 20.6149088541667  0.990234375 19.8447265625  C 0.330078125 19.0745442708333  0 18.1471354166667  0 17.0625  L 0 5.6875  C 0 4.60286458333333  0.330078125 3.67545572916667  0.990234375 2.9052734375  C 1.650390625 2.13509114583333  2.4453125 1.75  3.375 1.75  L 11.625 1.75  C 11.734375 1.75  11.82421875 1.791015625  11.89453125 1.873046875  C 11.96484375 1.955078125  12 2.05989583333333  12 2.1875  L 12 3.0625  C 12 3.19010416666667  11.96484375 3.294921875  11.89453125 3.376953125  C 11.82421875 3.458984375  11.734375 3.5  11.625 3.5  L 3.375 3.5  C 2.859375 3.5  2.41796875 3.71419270833333  2.05078125 4.142578125  C 1.68359375 4.57096354166667  1.5 5.0859375  1.5 5.6875  L 1.5 17.0625  C 1.5 17.6640625  1.68359375 18.1790364583333  2.05078125 18.607421875  C 2.41796875 19.0358072916667  2.859375 19.25  3.375 19.25  L 13.125 19.25  C 13.640625 19.25  14.08203125 19.0358072916667  14.44921875 18.607421875  C 14.81640625 18.1790364583333  15 17.6640625  15 17.0625  L 15 12.6875  C 15 12.5598958333333  15.03515625 12.455078125  15.10546875 12.373046875  C 15.17578125 12.291015625  15.265625 12.25  15.375 12.25  L 16.125 12.25  C 16.234375 12.25  16.32421875 12.291015625  16.39453125 12.373046875  Z M 20.77734375 0.259765624999999  C 20.92578125 0.43294270833333  21 0.63802083333333  21 0.874999999999999  L 21 7.875  C 21 8.11197916666667  20.92578125 8.31705729166667  20.77734375 8.490234375  C 20.62890625 8.66341145833333  20.453125 8.75  20.25 8.75  C 20.046875 8.75  19.87109375 8.66341145833333  19.72265625 8.490234375  L 17.66015625 6.083984375  L 10.01953125 14.998046875  C 9.94140625 15.0891927083333  9.8515625 15.134765625  9.75 15.134765625  C 9.6484375 15.134765625  9.55859375 15.0891927083333  9.48046875 14.998046875  L 8.14453125 13.439453125  C 8.06640625 13.3483072916667  8.02734375 13.2434895833333  8.02734375 13.125  C 8.02734375 13.0065104166667  8.06640625 12.9016927083333  8.14453125 12.810546875  L 15.78515625 3.896484375  L 13.72265625 1.490234375  C 13.57421875 1.31705729166667  13.5 1.11197916666667  13.5 0.874999999999999  C 13.5 0.63802083333333  13.57421875 0.43294270833333  13.72265625 0.259765624999999  C 13.87109375 0.086588541666668  14.046875 0  14.25 0  L 20.25 0  C 20.453125 0  20.62890625 0.086588541666668  20.77734375 0.259765624999999  Z " fill-rule="nonzero" fill="#519956" stroke="none" transform="matrix(1 0 0 1 1560 799 )" />
  </g>
</svg>