<?xml version="1.0" encoding="utf-8"?>
<svg version="1.1" xmlns:xlink="http://www.w3.org/1999/xlink" width="31px" height="31px" xmlns="http://www.w3.org/2000/svg">
  <g transform="matrix(1 0 0 1 -1270 -1016 )">
    <path d="M 20.65859375 24.0572916666667  C 24.4528645833333 21.5815972222222  26.35 19.1597222222222  26 16.7916666666667  L 26 4  L 15 4  L 15 26.822265625  C 17.4213541666667 25.974609375  19.1408854166667 25.0529513888889  20.65859375 24.0572916666667  Z M 30.53984375 0.383463541666666  C 30.8466145833333 0.639105902777774  31 0.941840277777774  31 1.29166666666667  L 31 16.7916666666667  C 31 17.9487847222222  30.7295572916667 19.0958116319444  30.188671875 20.2327473958333  C 29.6477864583333 21.3696831597222  28.977734375 22.3787977430556  28.178515625 23.2600911458333  C 27.379296875 24.1413845486111  26.4266927083333 24.9991319444444  25.320703125 25.8333333333333  C 24.2147135416667 26.6675347222222  23.1934895833333 27.3604600694444  22.25703125 27.912109375  C 21.3205729166667 28.4637586805556  20.34375 28.9851345486111  19.3265625 29.4762369791667  C 18.309375 29.9673394097222  17.5868489583333 30.3003472222222  17.158984375 30.4752604166667  C 16.7311197916667 30.6501736111111  16.3880208333333 30.7847222222222  16.1296875 30.87890625  C 15.9359375 30.9596354166667  15.7260416666667 31  15.5 31  C 15.2739583333333 31  15.0640625 30.9596354166667  14.8703125 30.87890625  C 14.6119791666667 30.7847222222222  14.2688802083333 30.6501736111111  13.841015625 30.4752604166667  C 13.4131510416667 30.3003472222222  12.690625 29.9673394097222  11.6734375 29.4762369791667  C 10.65625 28.9851345486111  9.67942708333333 28.4637586805556  8.74296875 27.912109375  C 7.80651041666667 27.3604600694444  6.78528645833333 26.6675347222222  5.679296875 25.8333333333333  C 4.57330729166667 24.9991319444444  3.620703125 24.1413845486111  2.821484375 23.2600911458333  C 2.022265625 22.3787977430556  1.35221354166667 21.3696831597222  0.811328125 20.2327473958333  C 0.270442708333333 19.0958116319444  0 17.9487847222222  0 16.7916666666667  L 0 1.29166666666667  C 0 0.941840277777774  0.153385416666667 0.639105902777774  0.46015625 0.383463541666666  C 0.766927083333333 0.127821180555554  1.13020833333333 0  1.55 0  L 29.45 0  C 29.8697916666667 0  30.2330729166667 0.127821180555554  30.53984375 0.383463541666666  Z " fill-rule="nonzero" fill="#519956" stroke="none" fill-opacity="0.823529411764706" transform="matrix(1 0 0 1 1270 1016 )" />
  </g>
</svg>