<?xml version="1.0" encoding="utf-8"?>
<svg version="1.1" xmlns:xlink="http://www.w3.org/1999/xlink" width="180px" height="180px" xmlns="http://www.w3.org/2000/svg">
  <g transform="matrix(1 0 0 1 -272 -124 )">
    <path d="M 362 124  C 412.4 124  452 163.6  452 214  C 452 264.4  412.4 304  362 304  C 311.6 304  272 264.4  272 214  C 272 163.6  311.6 124  362 124  Z " fill-rule="nonzero" fill="#ffffff" stroke="none" />
    <path d="M 362 124.5  C 412.12 124.5  451.5 163.88  451.5 214  C 451.5 264.12  412.12 303.5  362 303.5  C 311.88 303.5  272.5 264.12  272.5 214  C 272.5 163.88  311.88 124.5  362 124.5  Z " stroke-width="1" stroke="#f1ca89" fill="none" />
  </g>
</svg>