<?xml version="1.0" encoding="utf-8"?>
<svg version="1.1" xmlns:xlink="http://www.w3.org/1999/xlink" width="40px" height="32px" xmlns="http://www.w3.org/2000/svg">
  <g transform="matrix(1 0 0 1 -452 -556 )">
    <path d="M 13.6642498605689 25.5977961432507  C 14.2665923034021 25.3994490358127  14.7313627068228 25.0505050505051  15.058561070831 24.5509641873278  C 15.3708867819297 24.0514233241506  15.4526863729318 23.544536271809  15.3039598438371 23.030303030303  C 15.1552333147425 22.5160697887971  14.8205986242796 22.1487603305785  14.3000557724484 21.9283746556474  C 13.7943855735267 21.722681359045  13.2515337423313 21.7153351698806  12.6715002788622 21.9063360881543  C 12.0914668153932 22.0973370064279  11.6452872281093 22.435261707989  11.3329615170106 22.9201101928375  C 11.0057631530024 23.4196510560147  10.9090909090909 23.9228650137741  11.0429447852761 24.4297520661157  C 11.1767986614612 24.9366391184573  11.4965606990147 25.307621671258  12.0022308979364 25.5426997245179  C 12.5079010968582 25.7777777777778  13.0619074177356 25.7961432506887  13.6642498605689 25.5977961432507  Z M 16.664807585053 22.2920110192837  C 16.8878973786949 22.2112029384757  17.051496560699 22.0752984389348  17.1556051310653 21.8842975206612  C 17.274586354341 21.6932966023875  17.3006134969325 21.4986225895317  17.2336865588399 21.3002754820937  C 17.1667596207474 21.1019283746557  17.0366239077896 20.9660238751148  16.8432794199665 20.8925619834711  C 16.6350622792341 20.8191000918274  16.4231269752742 20.8227731864095  16.207473508087 20.9035812672176  C 15.9918200408998 20.9843893480257  15.8319390221231 21.1202938475666  15.7278304517568 21.3112947658402  C 15.474995352296 21.7667584940312  15.5716675962075 22.0973370064279  16.0178471834914 22.3030303030303  C 16.2260643242238 22.376492194674  16.441717791411 22.3728191000918  16.664807585053 22.2920110192837  Z M 20.9815950920245 20.0440771349862  C 21.688046105224 21.3737373737374  21.7066369213608 22.77318640955  21.037367540435 24.2424242424242  C 20.3680981595092 25.7410468319559  19.1931585796616 26.8429752066116  17.5125488008924 27.5482093663912  C 15.8319390221231 28.2534435261708  14.1662018962632 28.3415977961433  12.5153374233129 27.8126721763085  C 10.9239635620004 27.3131313131313  9.8271054099275 26.3838383838384  9.22476296709426 25.0247933884298  C 8.62242052426102 23.6657483930211  8.67075664621677 22.2883379247016  9.36977133296152 20.8925619834711  C 10.0687860197063 19.5261707988981  11.1953894775981 18.5050505050505  12.7495817066369 17.8292011019284  C 14.3037739356758 17.1533516988062  15.8691206543967 17.0137741046832  17.4456218627998 17.4104683195592  C 19.0964863357501 17.8365472910927  20.2751440788251 18.7144168962351  20.9815950920245 20.0440771349862  Z M 25.0418293363079 26.5454545454545  C 27.2206729875442 24.8044077134986  28.2059862427961 22.8613406795225  27.9977691020636 20.7162534435262  C 27.8639152258784 19.3057851239669  27.2020821714073 18.0569329660239  26.0122699386503 16.969696969697  C 24.8224577058933 15.8824609733701  23.2719836400818 15.0817263544536  21.3608477412158 14.5674931129477  C 19.4497118423499 14.0532598714417  17.4084402305261 13.8989898989899  15.2370329057446 14.1046831955923  C 11.9204313069344 14.4426078971534  9.17270868191114 15.4820936639118  6.99386503067485 17.2231404958678  C 4.81502137943856 18.9641873278237  3.82970812418665 20.9072543617998  4.03792526491913 23.0523415977961  C 4.17177914110429 24.4628099173554  4.83361219557539 25.7116620752984  6.0234244283324 26.7988980716253  C 7.21323666108942 27.8861340679522  8.76371072690091 28.6868686868687  10.6748466257669 29.2011019283747  C 12.5859825246328 29.7153351698806  14.6272541364566 29.8696051423324  16.7986614612381 29.66391184573  C 20.1152630600483 29.325987144169  22.8629856850716 28.2865013774105  25.0418293363079 26.5454545454545  Z M 34.1104294478528 18.236914600551  C 34.6160996467745 19.0082644628099  34.8689347462354 19.8640955004591  34.8689347462354 20.8044077134986  C 34.8689347462354 21.8034894398531  34.5937906674103 22.8282828282828  34.0435025097602 23.8787878787879  C 33.4932143521101 24.9292929292929  32.6826547685443 25.9357208448118  31.611823759063 26.8980716253444  C 30.5409927495817 27.860422405877  29.2879717419595 28.7235996326905  27.8527607361963 29.4876033057851  C 26.4175497304332 30.2516069788797  24.7369399516639 30.8613406795225  22.8109313998885 31.3168044077135  C 20.884922848113 31.7722681359045  18.8733965421082 32  16.776352481874 32  C 14.6793084216397 32  12.6343186465886 31.7539026629936  10.6413831567206 31.2617079889807  C 8.64844766685258 30.7695133149679  6.86001115448968 30.0863177226814  5.2760736196319 29.2121212121212  C 3.69213608477412 28.3379247015611  2.41680609778769 27.228650137741  1.45008365867262 25.8842975206612  C 0.483361219557539 24.5399449035813  0 23.0743801652893  0 21.4876033057851  C 0 19.7979797979798  0.51682468860383 17.9981634527089  1.55047406581149 16.0881542699724  C 2.58412344301915 14.178145087236  4.05279791782859 12.2828282828283  5.95649749023982 10.4022038567493  C 8.46997583193902 7.91919191919192  11.0094813162298 6.18549127640036  13.5750139431121 5.20110192837465  C 16.1405465699944 4.21671258034894  17.9736010410857 4.26813590449954  19.0741773563859 5.35537190082645  C 20.040899795501 6.29568411386593  20.1896263245957 7.83103764921946  19.5203569436698 9.96143250688705  C 19.460866332032 10.1671258034894  19.4534300055772 10.3140495867769  19.4980479643056 10.4022038567493  C 19.542665923034 10.4903581267218  19.6170291875813 10.5417814508724  19.7211377579476 10.5564738292011  C 19.8252463283138 10.5711662075298  19.9330730619074 10.5674931129477  20.0446179587284 10.5454545454545  C 20.1561628555494 10.5234159779614  20.2565532626882 10.4977043158861  20.345789180145 10.4683195592287  L 20.4796430563302 10.4242424242424  C 22.5469418107455 9.55739210284665  24.3762781186094 9.12396694214876  25.9676519799219 9.12396694214876  C 27.5590258412344 9.12396694214876  28.6967837888083 9.57208448117539  29.3809258226436 10.4683195592287  C 30.0501952035694 11.3939393939394  30.0501952035694 12.7015610651974  29.3809258226436 14.3911845730028  C 29.3511805168247 14.5821854912764  29.3177170477784 14.7291092745638  29.2805354155047 14.831955922865  C 29.2433537832311 14.9348025711662  29.2768172522774 15.0266299357208  29.3809258226436 15.1074380165289  C 29.4850343930099 15.188246097337  29.5742703104666 15.2433425160698  29.6486335750139 15.2727272727273  C 29.7229968395613 15.3021120293848  29.8494143892917 15.346189164371  30.0278862242052 15.404958677686  C 30.8756274400446 15.6694214876033  31.641569064882 16.0146923783287  32.3257110987172 16.4407713498623  C 33.0098531325525 16.8668503213958  33.604759248931 17.465564738292  34.1104294478528 18.236914600551  Z M 30.9648633575014 5.60881542699725  C 31.8423498791597 5.88062442607897  32.5934188510876 6.36179981634527  33.218070273285 7.05234159779614  C 33.8427216954824 7.74288337924702  34.2480014872653 8.53994490358127  34.4339096486336 9.4435261707989  C 34.6198178100019 10.3471074380165  34.5714816880461 11.2102846648301  34.2889012827663 12.0330578512397  C 34.1699200594906 12.3709825528007  33.950548429076 12.6207529843893  33.6307863915226 12.7823691460055  C 33.3110243539691 12.9439853076217  32.9801078267336 12.9733700642792  32.638036809816 12.870523415978  C 32.2959657928983 12.752984389348  32.0431306934374 12.5362718089991  31.8795315114333 12.2203856749311  C 31.7159323294293 11.9044995408632  31.6861870236103 11.5775941230487  31.7902955939766 11.2396694214876  C 32.0877486521658 10.3140495867769  31.9092768172523 9.49862258953168  31.2548800892359 8.79338842975207  C 30.6004833612196 8.08815426997245  29.8047964305633 7.83103764921946  28.8678192972672 8.02203856749311  C 28.51087562744 8.09550045913682  28.1762409369771 8.03673094582185  27.8639152258784 7.84573002754821  C 27.5515895147797 7.65472910927456  27.3656813534114 7.38292011019284  27.3061907417736 7.03030303030303  C 27.2318274772263 6.67768595041322  27.2913180888641 6.35078053259871  27.4846625766871 6.0495867768595  C 27.6780070645101 5.74839302112029  27.9531511433352 5.56106519742883  28.3100948131623 5.48760330578513  C 29.2024539877301 5.29660238751148  30.0873768358431 5.33700642791552  30.9648633575014 5.60881542699725  Z M 32.6157278304518 0.495867768595041  C 34.4153188324967 1.04683195592287  35.9620747350809 2.03489439853076  37.2559955382041 3.46005509641873  C 38.5499163413274 4.87052341597796  39.3865030674847 6.5050505050505  39.765755716676 8.36363636363636  C 40.1450083658673 10.2222222222222  40.0446179587284 11.9963269054178  39.4645844952593 13.6859504132231  C 39.3307306190742 14.0826446280992  39.0778955196133 14.376492194674  38.7060791968767 14.5674931129477  C 38.3342628741402 14.7584940312213  37.9475738984941 14.7878787878788  37.5460122699387 14.6556473829201  C 37.1444506413832 14.5234159779614  36.8469975831939 14.2736455463728  36.6536530953709 13.9063360881543  C 36.4603086075479 13.5390266299357  36.4231269752742 13.1570247933884  36.5421081985499 12.7603305785124  C 36.9585424800149 11.5555555555556  37.0329057445622 10.2920110192837  36.7651979921919 8.96969696969697  C 36.4974902398215 7.64738292011019  35.902584123443 6.48668503213958  34.9804796430563 5.48760330578513  C 34.0583751626696 4.47382920110193  32.9577988473694 3.7722681359045  31.6787506971556 3.38292011019284  C 30.3997025469418 2.99357208448117  29.1132180702733 2.93112947658402  27.81929726715 3.19559228650138  C 27.4028629856851 3.28374655647383  27.016174010039 3.2139577594123  26.6592303402119 2.9862258953168  C 26.3022866703848 2.7584940312213  26.0791968767429 2.43893480257116  25.9899609592861 2.02754820936639  C 25.9007250418293 1.61616161616162  25.9713701431493 1.23783287419651  26.201896263246 0.892561983471076  C 26.4324223833426 0.547291092745638  26.7559025841234 0.330578512396695  27.1723368655884 0.242424242424242  C 29.0016731734523 -0.139577594123054  30.8161368284068 -0.0550964187327807  32.6157278304518 0.495867768595041  Z " fill-rule="nonzero" fill="#facd91" stroke="none" transform="matrix(1 0 0 1 452 556 )" />
  </g>
</svg>