<?xml version="1.0" encoding="utf-8"?>
<svg version="1.1" xmlns:xlink="http://www.w3.org/1999/xlink" width="41px" height="32px" xmlns="http://www.w3.org/2000/svg">
  <g transform="matrix(1 0 0 1 -393 -556 )">
    <path d="M 11.11083984375 8.91127098321343  C 11.4444986979167 8.59792166266986  11.611328125 8.17905675459632  11.611328125 7.6546762589928  C 11.611328125 7.13029576338928  11.4444986979167 6.70823341326938  11.11083984375 6.38848920863309  C 10.7771809895833 6.0687450039968  10.3367513020833 5.90887290167866  9.78955078125 5.90887290167866  C 9.21565755208333 5.90887290167866  8.70849609375 6.07194244604317  8.26806640625 6.39808153477218  C 7.82763671875 6.7242206235012  7.607421875 7.14308553157474  7.607421875 7.6546762589928  C 7.607421875 8.15347721822542  7.82763671875 8.56594724220624  8.26806640625 8.89208633093525  C 8.70849609375 9.21822541966427  9.21565755208333 9.38129496402878  9.78955078125 9.38129496402878  C 10.3367513020833 9.38129496402878  10.7771809895833 9.22462030375699  11.11083984375 8.91127098321343  Z M 25.975341796875 18.3597122302158  C 26.315673828125 18.0783373301359  26.48583984375 17.7521982414069  26.48583984375 17.3812949640288  C 26.48583984375 17.0231814548361  26.315673828125 16.7034372501998  25.975341796875 16.4220623501199  C 25.635009765625 16.14068745004  25.1979166666667 16  24.6640625 16  C 24.3037109375 16  23.973388671875 16.1438848920863  23.673095703125 16.431654676259  C 23.372802734375 16.7194244604317  23.22265625 17.0359712230216  23.22265625 17.3812949640288  C 23.22265625 17.7394084732214  23.372802734375 18.0623501199041  23.673095703125 18.3501199040767  C 23.973388671875 18.6378896882494  24.3037109375 18.7817745803357  24.6640625 18.7817745803357  C 25.1979166666667 18.7817745803357  25.635009765625 18.6410871302958  25.975341796875 18.3597122302158  Z M 21.270751953125 8.91127098321343  C 21.5977376302083 8.59792166266986  21.76123046875 8.17905675459632  21.76123046875 7.6546762589928  C 21.76123046875 7.13029576338928  21.5977376302083 6.70823341326938  21.270751953125 6.38848920863309  C 20.9437662760417 6.0687450039968  20.5066731770833 5.90887290167866  19.95947265625 5.90887290167866  C 19.3855794270833 5.90887290167866  18.87841796875 6.07194244604317  18.43798828125 6.39808153477218  C 17.99755859375 6.7242206235012  17.77734375 7.14308553157474  17.77734375 7.6546762589928  C 17.77734375 8.15347721822542  17.99755859375 8.56594724220624  18.43798828125 8.89208633093525  C 18.87841796875 9.21822541966427  19.3855794270833 9.38129496402878  19.95947265625 9.38129496402878  C 20.5066731770833 9.38129496402878  20.9437662760417 9.22462030375699  21.270751953125 8.91127098321343  Z M 33.953125 18.3597122302158  C 34.3001302083333 18.0783373301359  34.4736328125 17.7521982414069  34.4736328125 17.3812949640288  C 34.4736328125 17.0231814548361  34.3001302083333 16.7034372501998  33.953125 16.4220623501199  C 33.6061197916667 16.14068745004  33.17236328125 16  32.65185546875 16  C 32.29150390625 16  31.961181640625 16.1438848920863  31.660888671875 16.431654676259  C 31.360595703125 16.7194244604317  31.21044921875 17.0359712230216  31.21044921875 17.3812949640288  C 31.21044921875 17.7394084732214  31.360595703125 18.0623501199041  31.660888671875 18.3501199040767  C 31.961181640625 18.6378896882494  32.29150390625 18.7817745803357  32.65185546875 18.7817745803357  C 33.17236328125 18.7817745803357  33.6061197916667 18.6410871302958  33.953125 18.3597122302158  Z M 26.415771484375 4.7673860911271  C 27.8238118489583 6.25739408473221  28.7347005208333 7.92326139088729  29.1484375 9.76498800959233  C 28.7347005208333 9.71382893685052  28.267578125 9.68824940047962  27.7470703125 9.68824940047962  C 25.4915364583333 9.68824940047962  23.4161783854167 10.1806554756195  21.52099609375 11.1654676258993  C 19.6258138020833 12.1502797761791  18.1343587239583 13.4836131095124  17.046630859375 15.1654676258993  C 15.9589029947917 16.8473221422862  15.4150390625 18.6858513189448  15.4150390625 20.6810551558753  C 15.4150390625 21.6786570743405  15.5685221354167 22.6506794564349  15.87548828125 23.5971223021583  C 15.4083658854167 23.6354916067146  14.95458984375 23.6546762589928  14.51416015625 23.6546762589928  C 14.1671549479167 23.6546762589928  13.83349609375 23.6450839328537  13.51318359375 23.6258992805755  C 13.19287109375 23.6067146282974  12.8258463541667 23.5651478816946  12.412109375 23.5011990407674  C 11.9983723958333 23.4372501998401  11.701416015625 23.392486011191  11.521240234375 23.3669064748201  C 11.341064453125 23.3413269384492  10.9773763020833 23.2741806554756  10.43017578125 23.1654676258993  C 9.88297526041667 23.0567545963229  9.54931640625 22.9896083133493  9.42919921875 22.9640287769784  L 4.3642578125 25.400479616307  L 5.8056640625 21.2182254196643  C 1.93522135416667 18.6219024780176  0 15.4884092725819  0 11.8177458033573  C 0 9.65627498001599  0.650634765625 7.66746602717825  1.951904296875 5.85131894484412  C 3.253173828125 4.03517186250999  5.014892578125 2.60591526778577  7.237060546875 1.56354916067146  C 9.459228515625 0.521183053557152  11.8849283854167 0  14.51416015625 0  C 16.8631184895833 0  19.0819498697917 0.422062350119905  21.170654296875 1.26618705035971  C 23.2593587239583 2.11031175059952  25.0077311197917 3.27737809752198  26.415771484375 4.7673860911271  Z M 39.288330078125 15.4724220623501  C 40.429443359375 17.0263788968825  41 18.7114308553157  41 20.5275779376499  C 41 22.0239808153477  40.5428873697917 23.4532374100719  39.628662109375 24.8153477218225  C 38.7144368489583 26.1774580335731  37.4765625 27.4148681055156  35.9150390625 28.5275779376499  L 37.01611328125 32  L 33.0322265625 29.9088729016787  C 31.0302734375 30.3820943245404  29.5755208333333 30.6187050359712  28.66796875 30.6187050359712  C 26.4124348958333 30.6187050359712  24.3370768229167 30.1678657074341  22.44189453125 29.2661870503597  C 20.5467122395833 28.3645083932854  19.0552571614583 27.1398880895284  17.967529296875 25.5923261390887  C 16.8798014322917 24.0447641886491  16.3359375 22.3565147881695  16.3359375 20.5275779376499  C 16.3359375 18.6986410871303  16.8798014322917 17.0103916866507  17.967529296875 15.462829736211  C 19.0552571614583 13.9152677857714  20.5467122395833 12.6906474820144  22.44189453125 11.78896882494  C 24.3370768229167 10.8872901678657  26.4124348958333 10.4364508393285  28.66796875 10.4364508393285  C 30.8167317708333 10.4364508393285  32.8387044270833 10.8872901678657  34.73388671875 11.78896882494  C 36.6290690104167 12.6906474820144  38.147216796875 13.9184652278177  39.288330078125 15.4724220623501  Z " fill-rule="nonzero" fill="#519956" stroke="none" fill-opacity="0.823529411764706" transform="matrix(1 0 0 1 393 556 )" />
  </g>
</svg>