<?xml version="1.0" encoding="utf-8"?>
<svg version="1.1" xmlns:xlink="http://www.w3.org/1999/xlink" width="32px" height="32px" xmlns="http://www.w3.org/2000/svg">
  <g transform="matrix(1 0 0 1 -342 -556 )">
    <path d="M 0 22.7142857142857  C 0 19.4404761904762  1.53075170842825 16.6666666666667  4.59225512528474 14.3928571428571  C 4.49506454062263 14.1666666666667  4.44646924829157 13.8571428571429  4.44646924829157 13.4642857142857  C 4.44646924829157 13.2261904761905  4.51328777524677 12.9345238095238  4.64692482915718 12.5892857142857  C 4.78056188306758 12.2440476190476  4.92634776006074 11.9761904761905  5.08428246013667 11.7857142857143  C 5.07213363705391 11.5238095238095  5.11769172361428 11.2083333333333  5.22095671981777 10.8392857142857  C 5.32422171602126 10.4702380952381  5.46089597570235 10.2142857142857  5.63097949886105 10.0714285714286  C 5.63097949886105 8.41666666666666  6.19286256643888 6.69940476190476  7.31662870159453 4.91964285714286  C 8.44039483675019 3.13988095238095  9.76157934700076 1.89285714285714  11.2801822323462 1.17857142857143  C 12.9688686408504 0.392857142857142  14.9369779802582 0  17.1845102505695 0  C 18.8003037205771 0  20.4160971905847 0.327380952380956  22.0318906605923 0.982142857142858  C 22.6271829916477 1.23214285714286  23.1738800303721 1.51785714285714  23.6719817767654 1.83928571428572  C 24.1700835231587 2.16071428571428  24.6013667425968 2.49404761904762  24.9658314350797 2.83928571428572  C 25.3302961275626 3.18452380952381  25.6643887623387 3.58928571428572  25.9681093394077 4.05357142857143  C 26.2718299164768 4.51785714285714  26.5269552012149 4.95833333333333  26.7334851936219 5.375  C 26.9400151860289 5.79166666666666  27.1374335611238 6.29464285714286  27.3257403189066 6.88392857142857  C 27.5140470766894 7.47321428571428  27.6689445709947 8.00595238095238  27.7904328018223 8.48214285714286  C 27.91192103265 8.95833333333333  28.0455580865604 9.54166666666666  28.1913439635535 10.2321428571429  L 28.2095671981777 10.3214285714286  C 28.8777524677297 11.3095238095238  29.2118451025057 12.202380952381  29.2118451025057 13  C 29.2118451025057 13.1666666666667  29.1571753986333 13.4047619047619  29.0478359908884 13.7142857142857  C 28.9384965831435 14.0238095238095  28.8838268792711 14.25  28.8838268792711 14.3928571428571  C 28.8838268792711 14.4047619047619  28.8929384965831 14.4255952380952  28.9111617312073 14.4553571428571  C 28.9293849658314 14.485119047619  28.9506454062263 14.514880952381  28.9749430523918 14.5446428571429  C 28.9992406985573 14.5744047619048  29.0113895216401 14.5952380952381  29.0113895216401 14.6071428571429  C 29.9468488990129 15.9642857142857  30.6788154897494 17.2410714285714  31.2072892938497 18.4375  C 31.7357630979499 19.6339285714286  32 20.875  32 22.1607142857143  C 32 22.672619047619  31.8815489749431 23.2678571428571  31.6446469248292 23.9464285714286  C 31.4077448747153 24.625  31.0706150341686 24.9642857142857  30.6332574031891 24.9642857142857  C 30.5239179954442 24.9642857142857  30.4054669703872 24.9196428571429  30.2779043280182 24.8303571428571  C 30.1503416856492 24.7410714285714  30.0349278663629 24.6369047619048  29.9316628701595 24.5178571428571  C 29.828397873956 24.3988095238095  29.7129840546697 24.2440476190476  29.5854214123007 24.0535714285714  C 29.4578587699317 23.8630952380952  29.3606681852696 23.7053571428571  29.2938496583144 23.5803571428571  C 29.2270311313592 23.4553571428571  29.1450265755505 23.3005952380952  29.0478359908884 23.1160714285714  C 28.9506454062263 22.9315476190476  28.8959757023538 22.8273809523809  28.8838268792711 22.8035714285714  C 28.8716780561883 22.7916666666667  28.8534548215642 22.7857142857143  28.8291571753986 22.7857142857143  L 28.7380410022779 22.8571428571429  C 28.0212604403948 24.6904761904762  27.2194381169324 26.0178571428571  26.3325740318907 26.8392857142857  C 26.5755504935459 27.0773809523809  26.9491268033409 27.3065476190476  27.4533029612756 27.5267857142857  C 27.9574791192103 27.7470238095238  28.3766135155657 27.9940476190476  28.7107061503417 28.2678571428571  C 29.0447987851177 28.5416666666667  29.2604403948368 28.9285714285714  29.3576309794989 29.4285714285714  C 29.3333333333333 29.4761904761905  29.3090356871678 29.5714285714286  29.2847380410023 29.7142857142857  C 29.2604403948368 29.8571428571429  29.2179195140471 29.9642857142857  29.1571753986333 30.0357142857143  C 28.3796507213364 31.1904761904762  26.545178435839 31.7678571428571  23.6537585421412 31.7678571428571  C 23.0098709187547 31.7678571428571  22.338648443432 31.7142857142857  21.6400911161731 31.6071428571429  C 20.9415337889142 31.5  20.3462414578588 31.3809523809524  19.8542141230068 31.25  C 19.3621867881549 31.1190476190476  18.7274107820805 30.9404761904762  17.9498861047836 30.7142857142857  C 17.7676537585421 30.6547619047619  17.6279422930904 30.6130952380952  17.5307517084282 30.5892857142857  C 17.3606681852696 30.5416666666667  17.081245254366 30.514880952381  16.6924829157175 30.5089285714286  C 16.3037205770691 30.5029761904762  16.0607441154138 30.4940476190476  15.9635535307517 30.4821428571429  C 15.4654517843584 31.0178571428571  14.6909643128322 31.4047619047619  13.6400911161731 31.6428571428571  C 12.589217919514 31.8809523809524  11.5656795747912 32  10.5694760820046 32  C 10.1442672741078 32  9.72513287775247 31.9910714285714  9.3120728929385 31.9732142857143  C 8.89901290812453 31.9553571428571  8.33409263477601 31.9017857142857  7.61731207289294 31.8125  C 6.90053151100987 31.7232142857143  6.2870159453303 31.6011904761905  5.77676537585421 31.4464285714286  C 5.26651480637813 31.2916666666667  4.81397114654518 31.0535714285714  4.41913439635535 30.7321428571429  C 4.02429764616553 30.4107142857143  3.82687927107062 30.0297619047619  3.82687927107062 29.5892857142857  C 3.82687927107062 29.1130952380952  3.88762338648444 28.7589285714286  4.00911161731207 28.5267857142857  C 4.13059984813971 28.2946428571429  4.37965072133637 28.0059523809524  4.75626423690205 27.6607142857143  C 4.88990129081245 27.6369047619048  5.13591495823842 27.5595238095238  5.49430523917995 27.4285714285714  C 5.85269552012149 27.2976190476191  6.15337889141989 27.2261904761905  6.39635535307517 27.2142857142857  C 6.44495064540623 27.2142857142857  6.52999240698557 27.2023809523809  6.65148063781321 27.1785714285714  C 6.67577828397874 27.1547619047619  6.6879271070615 27.1309523809524  6.6879271070615 27.1071428571429  L 6.65148063781321 27.0535714285714  C 6.06833712984055 26.9226190476191  5.4123006833713 26.2946428571429  4.68337129840547 25.1696428571429  C 3.95444191343964 24.0446428571429  3.51100987091875 23.1130952380952  3.35307517084282 22.375  L 3.2619589977221 22.3214285714286  C 3.21336370539104 22.3214285714286  3.14047076689446 22.4404761904762  3.04328018223235 22.6785714285714  C 2.8246013667426 23.1666666666667  2.49354593773728 23.610119047619  2.0501138952164 24.0089285714286  C 1.60668185269552 24.4077380952381  1.13591495823842 24.6309523809524  0.637813211845103 24.6785714285714  L 0.619589977220957 24.6785714285714  C 0.570994684889901 24.6785714285714  0.53454821564161 24.6517857142857  0.510250569476082 24.5982142857143  C 0.485952923310554 24.5446428571429  0.455580865603645 24.5119047619048  0.419134396355353 24.5  C 0.139711465451784 23.8571428571429  0 23.2619047619048  0 22.7142857142857  Z " fill-rule="nonzero" fill="#81d3f8" stroke="none" transform="matrix(1 0 0 1 342 556 )" />
  </g>
</svg>