<?xml version="1.0" encoding="utf-8"?>
<svg version="1.1" xmlns:xlink="http://www.w3.org/1999/xlink" width="30px" height="22px" xmlns="http://www.w3.org/2000/svg">
  <g transform="matrix(1 0 0 1 -1205 -478 )">
    <path d="M 29.443359375 0.725694444444446  C 29.814453125 1.20949074074074  30 1.7824074074074  30 2.44444444444445  C 30 3.10648148148148  29.814453125 3.67939814814815  29.443359375 4.16319444444445  L 16.318359375 21.2743055555556  C 15.947265625 21.7581018518519  15.5078125 22  15 22  C 14.4921875 22  14.052734375 21.7581018518519  13.681640625 21.2743055555556  L 0.556640625 4.16319444444445  C 0.185546875 3.67939814814815  0 3.10648148148148  0 2.44444444444445  C 0 1.7824074074074  0.185546875 1.20949074074074  0.556640625 0.725694444444446  C 0.927734375 0.241898148148145  1.3671875 0  1.875 0  L 28.125 0  C 28.6328125 0  29.072265625 0.241898148148145  29.443359375 0.725694444444446  Z " fill-rule="nonzero" fill="#519956" stroke="none" transform="matrix(1 0 0 1 1205 478 )" />
  </g>
</svg>