<?xml version="1.0" encoding="utf-8"?>
<svg version="1.1" xmlns:xlink="http://www.w3.org/1999/xlink" width="30px" height="18px" xmlns="http://www.w3.org/2000/svg">
  <g transform="matrix(1 0 0 1 -1731 -111 )">
    <path d="M 29.443359375 0.593750000000001  C 29.814453125 0.989583333333331  30 1.45833333333333  30 2  C 30 2.54166666666667  29.814453125 3.01041666666666  29.443359375 3.40625  L 16.318359375 17.40625  C 15.947265625 17.8020833333333  15.5078125 18  15 18  C 14.4921875 18  14.052734375 17.8020833333333  13.681640625 17.40625  L 0.556640625 3.40625  C 0.185546875 3.01041666666666  0 2.54166666666667  0 2  C 0 1.45833333333333  0.185546875 0.989583333333331  0.556640625 0.593750000000001  C 0.927734375 0.197916666666664  1.3671875 0  1.875 0  L 28.125 0  C 28.6328125 0  29.072265625 0.197916666666664  29.443359375 0.593750000000001  Z " fill-rule="nonzero" fill="#519956" stroke="none" transform="matrix(1 0 0 1 1731 111 )" />
  </g>
</svg>