<?xml version="1.0" encoding="utf-8"?>
<svg version="1.1" xmlns:xlink="http://www.w3.org/1999/xlink" width="30px" height="23px" xmlns="http://www.w3.org/2000/svg">
  <g transform="matrix(1 0 0 1 -677 -474 )">
    <path d="M 29.443359375 0.758680555555557  C 29.814453125 1.26446759259259  30 1.86342592592592  30 2.55555555555556  C 30 3.24768518518518  29.814453125 3.84664351851852  29.443359375 4.35243055555556  L 16.318359375 22.2413194444444  C 15.947265625 22.7471064814815  15.5078125 23  15 23  C 14.4921875 23  14.052734375 22.7471064814815  13.681640625 22.2413194444444  L 0.556640625 4.35243055555556  C 0.185546875 3.84664351851852  0 3.24768518518518  0 2.55555555555556  C 0 1.86342592592592  0.185546875 1.26446759259259  0.556640625 0.758680555555557  C 0.927734375 0.252893518518515  1.3671875 0  1.875 0  L 28.125 0  C 28.6328125 0  29.072265625 0.252893518518515  29.443359375 0.758680555555557  Z " fill-rule="nonzero" fill="#519956" stroke="none" transform="matrix(1 0 0 1 677 474 )" />
  </g>
</svg>