<?xml version="1.0" encoding="utf-8"?>
<svg version="1.1" xmlns:xlink="http://www.w3.org/1999/xlink" width="30px" height="20px" xmlns="http://www.w3.org/2000/svg">
  <g transform="matrix(1 0 0 1 -2254 -388 )">
    <path d="M 29.443359375 0.659722222222223  C 29.814453125 1.09953703703703  30 1.62037037037037  30 2.22222222222222  C 30 2.82407407407407  29.814453125 3.3449074074074  29.443359375 3.78472222222222  L 16.318359375 19.3402777777778  C 15.947265625 19.7800925925926  15.5078125 20  15 20  C 14.4921875 20  14.052734375 19.7800925925926  13.681640625 19.3402777777778  L 0.556640625 3.78472222222222  C 0.185546875 3.3449074074074  0 2.82407407407407  0 2.22222222222222  C 0 1.62037037037037  0.185546875 1.09953703703703  0.556640625 0.659722222222223  C 0.927734375 0.219907407407405  1.3671875 0  1.875 0  L 28.125 0  C 28.6328125 0  29.072265625 0.219907407407405  29.443359375 0.659722222222223  Z " fill-rule="nonzero" fill="#519956" stroke="none" transform="matrix(1 0 0 1 2254 388 )" />
  </g>
</svg>