<?xml version="1.0" encoding="utf-8"?>
<svg version="1.1" xmlns:xlink="http://www.w3.org/1999/xlink" width="24px" height="27px" xmlns="http://www.w3.org/2000/svg">
  <g transform="matrix(1 0 0 1 -1922 -1842 )">
    <path d="M 19.4829545454545 12.4453125  C 19.5852272727273 12.5603693181818  19.6363636363636 12.7073863636364  19.6363636363636 12.8863636363636  L 19.6363636363636 14.1136363636364  C 19.6363636363636 14.2926136363636  19.5852272727273 14.4396306818182  19.4829545454545 14.5546875  C 19.3806818181818 14.6697443181818  19.25 14.7272727272727  19.0909090909091 14.7272727272727  L 13.0909090909091 14.7272727272727  L 13.0909090909091 21.4772727272727  C 13.0909090909091 21.65625  13.0397727272727 21.8032670454545  12.9375 21.9183238636364  C 12.8352272727273 22.0333806818182  12.7045454545455 22.0909090909091  12.5454545454545 22.0909090909091  L 11.4545454545455 22.0909090909091  C 11.2954545454545 22.0909090909091  11.1647727272727 22.0333806818182  11.0625 21.9183238636364  C 10.9602272727273 21.8032670454545  10.9090909090909 21.65625  10.9090909090909 21.4772727272727  L 10.9090909090909 14.7272727272727  L 4.90909090909091 14.7272727272727  C 4.75 14.7272727272727  4.61931818181818 14.6697443181818  4.51704545454545 14.5546875  C 4.41477272727273 14.4396306818182  4.36363636363636 14.2926136363636  4.36363636363636 14.1136363636364  L 4.36363636363636 12.8863636363636  C 4.36363636363636 12.7073863636364  4.41477272727273 12.5603693181818  4.51704545454545 12.4453125  C 4.61931818181818 12.3302556818182  4.75 12.2727272727273  4.90909090909091 12.2727272727273  L 10.9090909090909 12.2727272727273  L 10.9090909090909 5.52272727272727  C 10.9090909090909 5.34375  10.9602272727273 5.19673295454546  11.0625 5.08167613636364  C 11.1647727272727 4.96661931818182  11.2954545454545 4.90909090909091  11.4545454545455 4.90909090909091  L 12.5454545454545 4.90909090909091  C 12.7045454545455 4.90909090909091  12.8352272727273 4.96661931818182  12.9375 5.08167613636364  C 13.0397727272727 5.19673295454546  13.0909090909091 5.34375  13.0909090909091 5.52272727272727  L 13.0909090909091 12.2727272727273  L 19.0909090909091 12.2727272727273  C 19.25 12.2727272727273  19.3806818181818 12.3302556818182  19.4829545454545 12.4453125  Z M 21.0170454545455 23.6441761363636  C 21.5511363636364 23.0433238636364  21.8181818181818 22.3210227272727  21.8181818181818 21.4772727272727  L 21.8181818181818 5.52272727272727  C 21.8181818181818 4.67897727272727  21.5511363636364 3.95667613636363  21.0170454545455 3.35582386363636  C 20.4829545454545 2.75497159090909  19.8409090909091 2.45454545454546  19.0909090909091 2.45454545454546  L 4.90909090909091 2.45454545454546  C 4.15909090909091 2.45454545454546  3.51704545454546 2.75497159090909  2.98295454545455 3.35582386363636  C 2.44886363636364 3.95667613636363  2.18181818181818 4.67897727272727  2.18181818181818 5.52272727272727  L 2.18181818181818 21.4772727272727  C 2.18181818181818 22.3210227272727  2.44886363636364 23.0433238636364  2.98295454545455 23.6441761363636  C 3.51704545454546 24.2450284090909  4.15909090909091 24.5454545454545  4.90909090909091 24.5454545454545  L 19.0909090909091 24.5454545454545  C 19.8409090909091 24.5454545454545  20.4829545454545 24.2450284090909  21.0170454545455 23.6441761363636  Z M 22.5596590909091 1.62038352272727  C 23.5198863636364 2.70063920454545  24 4.00142045454545  24 5.52272727272727  L 24 21.4772727272727  C 24 22.9985795454545  23.5198863636364 24.2993607954545  22.5596590909091 25.3796164772727  C 21.5994318181818 26.4598721590909  20.4431818181818 27  19.0909090909091 27  L 4.90909090909091 27  C 3.55681818181818 27  2.40056818181818 26.4598721590909  1.44034090909091 25.3796164772727  C 0.480113636363636 24.2993607954545  0 22.9985795454545  0 21.4772727272727  L 0 5.52272727272727  C 0 4.00142045454545  0.480113636363636 2.70063920454545  1.44034090909091 1.62038352272727  C 2.40056818181818 0.540127840909088  3.55681818181818 0  4.90909090909091 0  L 19.0909090909091 0  C 20.4431818181818 0  21.5994318181818 0.540127840909088  22.5596590909091 1.62038352272727  Z " fill-rule="nonzero" fill="#555555" stroke="none" transform="matrix(1 0 0 1 1922 1842 )" />
  </g>
</svg>