<?xml version="1.0" encoding="utf-8"?>
<svg version="1.1" xmlns:xlink="http://www.w3.org/1999/xlink" width="37px" height="34px" xmlns="http://www.w3.org/2000/svg">
  <g transform="matrix(1 0 0 1 -2301 -2109 )">
    <path d="M 10.02685546875 9.46822541966427  C 10.3279622395833 9.13529176658673  10.478515625 8.69024780175859  10.478515625 8.13309352517985  C 10.478515625 7.57593924860111  10.3279622395833 7.12749800159872  10.02685546875 6.78776978417266  C 9.72574869791667 6.4480415667466  9.32828776041667 6.27817745803357  8.83447265625 6.27817745803357  C 8.31656901041667 6.27817745803357  7.85888671875 6.45143884892086  7.46142578125 6.79796163069544  C 7.06396484375 7.14448441247002  6.865234375 7.58952837729816  6.865234375 8.13309352517985  C 6.865234375 8.66306954436451  7.06396484375 9.10131894484412  7.46142578125 9.44784172661871  C 7.85888671875 9.79436450839328  8.31656901041667 9.96762589928057  8.83447265625 9.96762589928057  C 9.32828776041667 9.96762589928057  9.72574869791667 9.8011590727418  10.02685546875 9.46822541966427  Z M 23.441162109375 19.5071942446043  C 23.748291015625 19.2082334132694  23.90185546875 18.8617106314948  23.90185546875 18.4676258992806  C 23.90185546875 18.0871302957634  23.748291015625 17.7474020783373  23.441162109375 17.4484412470024  C 23.134033203125 17.1494804156675  22.7395833333333 17  22.2578125 17  C 21.9326171875 17  21.634521484375 17.1528776978417  21.363525390625 17.4586330935252  C 21.092529296875 17.7643884892086  20.95703125 18.1007194244604  20.95703125 18.4676258992806  C 20.95703125 18.8481215027978  21.092529296875 19.1912470023981  21.363525390625 19.4970023980815  C 21.634521484375 19.802757793765  21.9326171875 19.9556354916067  22.2578125 19.9556354916067  C 22.7395833333333 19.9556354916067  23.134033203125 19.8061550759392  23.441162109375 19.5071942446043  Z M 19.195556640625 9.46822541966427  C 19.4906412760417 9.13529176658673  19.63818359375 8.69024780175859  19.63818359375 8.13309352517985  C 19.63818359375 7.57593924860111  19.4906412760417 7.12749800159872  19.195556640625 6.78776978417266  C 18.9004720052083 6.4480415667466  18.5060221354167 6.27817745803357  18.01220703125 6.27817745803357  C 17.4943033854167 6.27817745803357  17.03662109375 6.45143884892086  16.63916015625 6.79796163069544  C 16.24169921875 7.14448441247002  16.04296875 7.58952837729816  16.04296875 8.13309352517985  C 16.04296875 8.66306954436451  16.24169921875 9.10131894484412  16.63916015625 9.44784172661871  C 17.03662109375 9.79436450839328  17.4943033854167 9.96762589928057  18.01220703125 9.96762589928057  C 18.5060221354167 9.96762589928057  18.9004720052083 9.8011590727418  19.195556640625 9.46822541966427  Z M 30.640625 19.5071942446043  C 30.9537760416667 19.2082334132694  31.1103515625 18.8617106314948  31.1103515625 18.4676258992806  C 31.1103515625 18.0871302957634  30.9537760416667 17.7474020783373  30.640625 17.4484412470024  C 30.3274739583333 17.1494804156675  29.93603515625 17  29.46630859375 17  C 29.14111328125 17  28.843017578125 17.1528776978417  28.572021484375 17.4586330935252  C 28.301025390625 17.7643884892086  28.16552734375 18.1007194244604  28.16552734375 18.4676258992806  C 28.16552734375 18.8481215027978  28.301025390625 19.1912470023981  28.572021484375 19.4970023980815  C 28.843017578125 19.802757793765  29.14111328125 19.9556354916067  29.46630859375 19.9556354916067  C 29.93603515625 19.9556354916067  30.3274739583333 19.8061550759392  30.640625 19.5071942446043  Z M 23.838623046875 5.06534772182254  C 25.1092936197917 6.64848121502798  25.9313151041667 8.41846522781775  26.3046875 10.3752997601918  C 25.9313151041667 10.3209432454037  25.509765625 10.2937649880096  25.0400390625 10.2937649880096  C 23.0045572916667 10.2937649880096  21.1316731770833 10.8169464428457  19.42138671875 11.863309352518  C 17.7111002604167 12.9096722621902  16.3651529947917 14.3263389288569  15.383544921875 16.113309352518  C 14.4019368489583 17.9002797761791  13.9111328125 19.8537170263789  13.9111328125 21.9736211031175  C 13.9111328125 23.0335731414868  14.0496419270833 24.066346922462  14.32666015625 25.0719424460432  C 13.9051106770833 25.1127098321343  13.49560546875 25.1330935251799  13.09814453125 25.1330935251799  C 12.7849934895833 25.1330935251799  12.48388671875 25.1229016786571  12.19482421875 25.1025179856115  C 11.90576171875 25.0821342925659  11.5745442708333 25.0379696243006  11.201171875 24.9700239808153  C 10.8277994791667 24.9020783373301  10.559814453125 24.8545163868905  10.397216796875 24.8273381294964  C 10.234619140625 24.8001598721023  9.90641276041667 24.7288169464428  9.41259765625 24.613309352518  C 8.91878255208333 24.4978017585931  8.61767578125 24.4264588329337  8.50927734375 24.3992805755396  L 3.9384765625 26.9880095923261  L 5.2392578125 22.5443645083933  C 1.74641927083333 19.7857713828937  0 16.4564348521183  0 12.5563549160671  C 0 10.259792166267  0.587158203125 8.14668265387689  1.761474609375 6.21702637889688  C 2.935791015625 4.28737010391687  4.525634765625 2.76878497202238  6.531005859375 1.66127098321343  C 8.536376953125 0.553756994404474  10.7254231770833 0  13.09814453125 0  C 15.2179361979167 0  17.2202962239583 0.448441247002399  19.105224609375 1.34532374100719  C 20.9901529947917 2.24220623501199  22.5679524739583 3.48221422861711  23.838623046875 5.06534772182254  Z M 35.455322265625 16.439448441247  C 36.485107421875 18.0905275779377  37 19.880895283773  37 21.810551558753  C 37 23.400479616307  36.5874837239583 24.9190647482014  35.762451171875 26.3663069544365  C 34.9374186197917 27.8135491606715  33.8203125 29.1282973621103  32.4111328125 30.310551558753  L 33.40478515625 34  L 29.8095703125 31.7781774580336  C 28.0029296875 32.2809752198241  26.6901041666667 32.5323741007194  25.87109375 32.5323741007194  C 23.8356119791667 32.5323741007194  21.9627278645833 32.0533573141487  20.25244140625 31.0953237410072  C 18.5421549479167 30.1372901678657  17.1962076822917 28.8361310951239  16.214599609375 27.1918465227818  C 15.2329915364583 25.5475619504396  14.7421875 23.7537969624301  14.7421875 21.810551558753  C 14.7421875 19.8673061550759  15.2329915364583 18.0735411670663  16.214599609375 16.4292565947242  C 17.1962076822917 14.7849720223821  18.5421549479167 13.4838129496403  20.25244140625 12.5257793764988  C 21.9627278645833 11.5677458033573  23.8356119791667 11.0887290167866  25.87109375 11.0887290167866  C 27.8102213541667 11.0887290167866  29.6349283854167 11.5677458033573  31.34521484375 12.5257793764988  C 33.0555013020833 13.4838129496403  34.425537109375 14.7883693045564  35.455322265625 16.439448441247  Z " fill-rule="nonzero" fill="#555555" stroke="none" transform="matrix(1 0 0 1 2301 2109 )" />
  </g>
</svg>