<?xml version="1.0" encoding="utf-8"?>
<svg version="1.1" xmlns:xlink="http://www.w3.org/1999/xlink" width="26px" height="37px" xmlns="http://www.w3.org/2000/svg">
  <g transform="matrix(1 0 0 1 -2453 -2115 )">
    <path d="M 14.9127604166667 34.933203125  C 15.4431423611111 34.4803385416667  15.7083333333333 33.9359375  15.7083333333333 33.3  C 15.7083333333333 32.6640625  15.4431423611111 32.1196614583333  14.9127604166667 31.666796875  C 14.3823784722222 31.2139322916667  13.7447916666667 30.9875  13 30.9875  C 12.2552083333333 30.9875  11.6176215277778 31.2139322916667  11.0872395833333 31.666796875  C 10.5568576388889 32.1196614583333  10.2916666666667 32.6640625  10.2916666666667 33.3  C 10.2916666666667 33.9359375  10.5568576388889 34.4803385416667  11.0872395833333 34.933203125  C 11.6176215277778 35.3860677083333  12.2552083333333 35.6125  13 35.6125  C 13.7447916666667 35.6125  14.3823784722222 35.3860677083333  14.9127604166667 34.933203125  Z M 22.4283854166667 29.325390625  C 22.6427951388889 29.1423177083333  22.75 28.9255208333333  22.75 28.675  L 22.75 8.325  C 22.75 8.07447916666666  22.6427951388889 7.85768229166666  22.4283854166667 7.674609375  C 22.2139756944444 7.49153645833333  21.9600694444444 7.4  21.6666666666667 8  L 4.33333333333333 8  C 4.03993055555556 7.4  3.78602430555556 7.49153645833333  3.57161458333333 7.674609375  C 3.35720486111111 7.85768229166666  3.25 8.07447916666666  3.25 8.325  L 3.25 28.675  C 3.25 28.9255208333333  3.35720486111111 29.1423177083333  3.57161458333333 29.325390625  C 3.78602430555556 29.5084635416667  4.03993055555556 29.6  4.33333333333333 29  L 21.6666666666667 29  C 21.9600694444444 29.6  22.2139756944444 29.5084635416667  22.4283854166667 29.325390625  Z M 15.7083333333333 4.625  C 16.0694444444444 4.625  16.25 4.47083333333333  16.25 4.1625  C 16.25 3.85416666666667  16.0694444444444 3.7  15.7083333333333 3.7  L 10.2916666666667 3.7  C 9.93055555555556 3.7  9.75 3.85416666666667  9.75 4.1625  C 9.75 4.47083333333333  9.93055555555556 4.625  10.2916666666667 4.625  L 15.7083333333333 4.625  Z M 24.7135416666667 1.0984375  C 25.5711805555556 1.83072916666667  26 2.69791666666667  26 3.7  L 26 33.3  C 26 34.3020833333333  25.5711805555556 35.1692708333333  24.7135416666667 35.9015625  C 23.8559027777778 36.6338541666667  22.8402777777778 37  21.6666666666667 37  L 4.33333333333333 37  C 3.15972222222222 37  2.14409722222222 36.6338541666667  1.28645833333333 35.9015625  C 0.428819444444444 35.1692708333333  0 34.3020833333333  0 33.3  L 0 3.7  C 0 2.69791666666667  0.428819444444444 1.83072916666667  1.28645833333333 1.0984375  C 2.14409722222222 0.366145833333329  3.15972222222222 0  4.33333333333333 0  L 21.6666666666667 0  C 22.8402777777778 0  23.8559027777778 0.366145833333329  24.7135416666667 1.0984375  Z " fill-rule="nonzero" fill="#555555" stroke="none" transform="matrix(1 0 0 1 2453 2115 )" />
  </g>
</svg>