<?xml version="1.0" encoding="utf-8"?>
<svg version="1.1" xmlns:xlink="http://www.w3.org/1999/xlink" width="28px" height="31px" xmlns="http://www.w3.org/2000/svg">
  <g transform="matrix(1 0 0 1 -2519 -2118 )">
    <path d="M 8.51666666666667 6.296875  C 9.06111111111111 7.05034722222222  9.33333333333333 7.96527777777777  9.33333333333333 9.04166666666667  C 9.33333333333333 10.1180555555556  9.06111111111111 11.0329861111111  8.51666666666667 11.7864583333333  C 7.97222222222222 12.5399305555556  7.31111111111111 12.9166666666667  6.53333333333333 12.9166666666667  C 5.75555555555556 12.9166666666667  5.09444444444445 12.5399305555556  4.55 11.7864583333333  C 4.00555555555556 11.0329861111111  3.73333333333333 10.1180555555556  3.73333333333333 9.04166666666667  C 3.73333333333333 7.96527777777777  4.00555555555556 7.05034722222222  4.55 6.296875  C 5.09444444444445 5.54340277777777  5.75555555555556 5.16666666666667  6.53333333333333 5.16666666666667  C 7.31111111111111 5.16666666666667  7.97222222222222 5.54340277777777  8.51666666666667 6.296875  Z M 18.2 8.39583333333333  L 24.2666666666667 16.7916666666667  L 24.2666666666667 25.8333333333333  L 3.73333333333333 25.8333333333333  L 3.73333333333333 21.9583333333333  L 8.4 15.5  L 10.7333333333333 18.7291666666667  L 18.2 8.39583333333333  Z M 25.9947916666667 2.77506510416667  C 25.9024305555556 2.64724392361111  25.7930555555556 2.58333333333333  25.6666666666667 3  L 2.33333333333333 3  C 2.20694444444444 2.58333333333333  2.09756944444444 2.64724392361111  2.00520833333333 2.77506510416667  C 1.91284722222222 2.90288628472222  1.86666666666667 3.05425347222222  2 3.22916666666667  L 2 27.7708333333333  C 1.86666666666667 27.9457465277778  1.91284722222222 28.0971137152778  2.00520833333333 28.2249348958333  C 2.09756944444444 28.3527560763889  2.20694444444444 28.4166666666667  2.33333333333333 28  L 25.6666666666667 28  C 25.7930555555556 28.4166666666667  25.9024305555556 28.3527560763889  25.9947916666667 28.2249348958333  C 26.0871527777778 28.0971137152778  26.1333333333333 27.9457465277778  26 27.7708333333333  L 26 3.22916666666667  C 26.1333333333333 3.05425347222222  26.0871527777778 2.90288628472222  25.9947916666667 2.77506510416667  Z M 27.3145833333333 0.948567708333334  C 27.7715277777778 1.58094618055555  28 2.34114583333333  28 3.22916666666667  L 28 27.7708333333333  C 28 28.6588541666667  27.7715277777778 29.4190538194444  27.3145833333333 30.0514322916667  C 26.8576388888889 30.6838107638889  26.3083333333333 31  25.6666666666667 31  L 2.33333333333333 31  C 1.69166666666667 31  1.14236111111111 30.6838107638889  0.685416666666667 30.0514322916667  C 0.228472222222222 29.4190538194444  0 28.6588541666667  0 27.7708333333333  L 0 3.22916666666667  C 0 2.34114583333333  0.228472222222222 1.58094618055555  0.685416666666667 0.948567708333334  C 1.14236111111111 0.316189236111108  1.69166666666667 0  2.33333333333333 0  L 25.6666666666667 0  C 26.3083333333333 0  26.8576388888889 0.316189236111108  27.3145833333333 0.948567708333334  Z " fill-rule="nonzero" fill="#555555" stroke="none" transform="matrix(1 0 0 1 2519 2118 )" />
  </g>
</svg>