<?xml version="1.0" encoding="utf-8"?>
<svg version="1.1" xmlns:xlink="http://www.w3.org/1999/xlink" width="22px" height="24px" xmlns="http://www.w3.org/2000/svg">
  <g transform="matrix(1 0 0 1 -792 -2454 )">
    <path d="M 5.5 16  L 5.5 22  L 16.5 22  L 16.5 16  L 5.5 16  Z M 18.3333333333333 15.5  L 18.3333333333333 22  L 20 22  L 20 8  C 20.1666666666667 7.85416666666666  20.1189236111111 7.65364583333333  20.0234375 7.3984375  C 19.9279513888889 7.14322916666667  19.8324652777778 6.96354166666666  19.7369791666667 6.859375  L 15.7122395833333 2.46875  C 15.6167534722222 2.36458333333333  15.4544270833333 2.26041666666666  15.2252604166667 2.15625  C 14.99609375 2.05208333333333  14.8098958333333 2  14.6666666666667 2  L 14.6666666666667 8.5  C 14.6666666666667 8.91666666666667  14.5329861111111 9.27083333333333  14.265625 9.5625  C 13.9982638888889 9.85416666666667  13.6736111111111 10  13.2916666666667 10  L 5.04166666666667 10  C 4.65972222222222 10  4.33506944444444 9.85416666666667  4.06770833333333 9.5625  C 3.80034722222222 9.27083333333333  3.66666666666667 8.91666666666667  3.66666666666667 8.5  L 3.66666666666667 2  L 2 2  L 2 22  L 3.66666666666667 22  L 3.66666666666667 15.5  C 3.66666666666667 15.0833333333333  3.80034722222222 14.7291666666667  4.06770833333333 14.4375  C 4.33506944444444 14.1458333333333  4.65972222222222 14  5.04166666666667 14  L 16.9583333333333 14  C 17.3402777777778 14  17.6649305555556 14.1458333333333  17.9322916666667 14.4375  C 18.1996527777778 14.7291666666667  18.3333333333333 15.0833333333333  18.3333333333333 15.5  Z M 12.697265625 7.8515625  C 12.7879774305556 7.75260416666667  12.8333333333333 7.63541666666667  12.8333333333333 7.5  L 12.8333333333333 2.5  C 12.8333333333333 2.36458333333333  12.7879774305556 2.24739583333333  12.697265625 2.1484375  C 12.6065538194444 2.04947916666666  12.4991319444444 2  12.375 2  L 9.625 2  C 9.50086805555556 2  9.39344618055556 2.04947916666666  9.302734375 2.1484375  C 9.21202256944445 2.24739583333333  9.16666666666667 2.36458333333333  9.16666666666667 2.5  L 9.16666666666667 7.5  C 9.16666666666667 7.63541666666667  9.21202256944445 7.75260416666667  9.302734375 7.8515625  C 9.39344618055556 7.95052083333333  9.50086805555556 8  9.625 8  L 12.375 8  C 12.4991319444444 8  12.6065538194444 7.95052083333333  12.697265625 7.8515625  Z M 21.7135416666667 6.625  C 21.9045138888889 7.125  22 7.58333333333333  22 8  L 22 22.5  C 22 22.9166666666667  21.8663194444444 23.2708333333333  21.5989583333333 23.5625  C 21.3315972222222 23.8541666666667  21.0069444444444 24  20.625 24  L 1.375 24  C 0.993055555555556 24  0.668402777777778 23.8541666666667  0.401041666666667 23.5625  C 0.133680555555556 23.2708333333333  0 22.9166666666667  0 22.5  L 0 1.5  C 0 1.08333333333333  0.133680555555556 0.729166666666663  0.401041666666667 0.437499999999999  C 0.668402777777778 0.145833333333332  0.993055555555556 0  1.375 0  L 14.6666666666667 0  C 15.0486111111111 0  15.46875 0.104166666666664  15.9270833333333 0.312500000000001  C 16.3854166666667 0.520833333333332  16.7482638888889 0.770833333333331  17.015625 1.0625  L 21.0260416666667 5.4375  C 21.2934027777778 5.72916666666666  21.5225694444444 6.125  21.7135416666667 6.625  Z " fill-rule="nonzero" fill="#555555" stroke="none" transform="matrix(1 0 0 1 792 2454 )" />
  </g>
</svg>