<?xml version="1.0" encoding="utf-8"?>
<svg version="1.1" xmlns:xlink="http://www.w3.org/1999/xlink" width="17px" height="26px" xmlns="http://www.w3.org/2000/svg">
  <g transform="matrix(1 0 0 1 -964 -2816 )">
    <path d="M 2.0087890625 25.7799479166667  C 0.990559895833333 25.8815104166667  0.320963541666667 25.9435763888889  0 25.9661458333333  L 0.2822265625 24.52734375  C 0.525716145833333 24.4483506944444  0.866048177083333 24.3552517361111  1.30322265625 24.248046875  C 1.74039713541667 24.1408420138889  2.13883463541667 24.0336371527778  2.49853515625 23.9264322916667  C 2.85823567708333 23.8192274305556  3.1875 23.6866319444444  3.486328125 23.5286458333333  C 3.79622395833333 23.1336805555556  4.02311197916667 22.5638020833333  4.1669921875 21.8190104166667  C 4.17805989583333 21.7400173611111  4.52115885416667 20.109375  5.1962890625 16.9270833333333  C 5.87141927083333 13.7447916666667  6.50227864583333 10.6781684027778  7.0888671875 7.72721354166667  C 7.67545572916667 4.77625868055555  7.96321614583333 3.10329861111111  7.9521484375 2.70833333333333  L 7.9521484375 2.28515625  C 7.6865234375 2.13845486111111  7.38492838541667 2.03407118055555  7.04736328125 1.97200520833333  C 6.70979817708333 1.90993923611111  6.3251953125 1.86480034722222  5.8935546875 1.83658854166667  C 5.4619140625 1.80837673611111  5.14095052083333 1.77734375  4.9306640625 1.74348958333333  L 5.24609375 0  C 5.611328125 0.0225694444444422  6.275390625 0.0592447916666676  7.23828125 0.110026041666668  C 8.201171875 0.160807291666668  9.02848307291667 0.200303819444442  9.72021484375 0.228515625  C 10.4119466145833 0.256727430555552  11.0787760416667 0.270833333333332  11.720703125 0.270833333333332  C 12.251953125 0.270833333333332  12.7970377604167 0.256727430555552  13.35595703125 0.228515625  C 13.9148763020833 0.200303819444442  14.58447265625 0.160807291666668  15.36474609375 0.110026041666668  C 16.14501953125 0.0592447916666676  16.6901041666667 0.0225694444444422  17 0  C 16.9446614583333 0.440104166666668  16.8395182291667 0.942274305555552  16.6845703125 1.50651041666667  C 16.3525390625 1.61935763888889  15.7908528645833 1.78016493055555  14.99951171875 1.98893229166667  C 14.2081705729167 2.19769965277778  13.6077473958333 2.38671875  13.1982421875 2.55598958333333  C 13.1097005208333 2.77039930555555  13.0322265625 3.01019965277778  12.9658203125 3.275390625  C 12.8994140625 3.54058159722222  12.849609375 3.76627604166667  12.81640625 3.95247395833333  C 12.783203125 4.138671875  12.74169921875 4.39539930555555  12.69189453125 4.72265625  C 12.64208984375 5.04991319444444  12.6061197916667 5.28689236111111  12.583984375 5.43359375  C 12.28515625 7.10373263888889  11.8009440104167 9.470703125  11.13134765625 12.5345052083333  C 10.4617513020833 15.5983072916667  10.0328776041667 17.6041666666667  9.8447265625 18.5520833333333  C 9.82259114583333 18.6536458333333  9.75065104166667 18.9809027777778  9.62890625 19.5338541666667  C 9.50716145833333 20.0868055555556  9.396484375 20.5946180555556  9.296875 21.0572916666667  C 9.197265625 21.5199652777778  9.10872395833333 21.9911024305556  9.03125 22.470703125  C 8.95377604166667 22.9503038194444  8.92057291666667 23.2747395833333  8.931640625 23.4440104166667  L 8.9482421875 23.7486979166667  C 9.13639322916667 23.7938368055556  10.16015625 23.96875  12.01953125 24.2734375  C 11.986328125 24.7699652777778  11.8977864583333 25.3285590277778  11.75390625 25.94921875  C 11.6321614583333 25.94921875  11.4523111979167 25.9576822916667  11.21435546875 25.974609375  C 10.9763997395833 25.9915364583333  10.7965494791667 26  10.6748046875 26  C 10.3538411458333 26  9.87239583333333 25.9435763888889  9.23046875 25.8307291666667  C 8.58854166666667 25.7178819444444  8.11263020833333 25.6614583333333  7.802734375 25.6614583333333  C 6.275390625 25.6388888888889  5.13541666666667 25.6276041666667  4.3828125 25.6276041666667  C 3.818359375 25.6276041666667  3.02701822916667 25.6783854166667  2.0087890625 25.7799479166667  Z " fill-rule="nonzero" fill="#000000" stroke="none" transform="matrix(1 0 0 1 964 2816 )" />
  </g>
</svg>