<?xml version="1.0" encoding="utf-8"?>
<svg version="1.1" xmlns:xlink="http://www.w3.org/1999/xlink" width="25px" height="25px" xmlns="http://www.w3.org/2000/svg">
  <g transform="matrix(1 0 0 1 -809 -2896 )">
    <path d="M 821.5 2896  C 828.5 2896  834 2901.5  834 2908.5  C 834 2915.5  828.5 2921  821.5 2921  C 814.5 2921  809 2915.5  809 2908.5  C 809 2901.5  814.5 2896  821.5 2896  Z " fill-rule="nonzero" fill="#027db4" stroke="none" />
    <path d="M 821.5 2896.5  C 828.22 2896.5  833.5 2901.78  833.5 2908.5  C 833.5 2915.22  828.22 2920.5  821.5 2920.5  C 814.78 2920.5  809.5 2915.22  809.5 2908.5  C 809.5 2901.78  814.78 2896.5  821.5 2896.5  Z " stroke-width="1" stroke="#797979" fill="none" />
  </g>
</svg>