<?xml version="1.0" encoding="utf-8"?>
<svg version="1.1" xmlns:xlink="http://www.w3.org/1999/xlink" width="25px" height="25px" xmlns="http://www.w3.org/2000/svg">
  <g transform="matrix(1 0 0 1 -944 -2896 )">
    <path d="M 956.5 2896  C 963.5 2896  969 2901.5  969 2908.5  C 969 2915.5  963.5 2921  956.5 2921  C 949.5 2921  944 2915.5  944 2908.5  C 944 2901.5  949.5 2896  956.5 2896  Z " fill-rule="nonzero" fill="#000000" stroke="none" />
    <path d="M 956.5 2896.5  C 963.22 2896.5  968.5 2901.78  968.5 2908.5  C 968.5 2915.22  963.22 2920.5  956.5 2920.5  C 949.78 2920.5  944.5 2915.22  944.5 2908.5  C 944.5 2901.78  949.78 2896.5  956.5 2896.5  Z " stroke-width="1" stroke="#797979" fill="none" />
  </g>
</svg>