<?xml version="1.0" encoding="utf-8"?>
<svg version="1.1" xmlns:xlink="http://www.w3.org/1999/xlink" width="55px" height="55px" xmlns="http://www.w3.org/2000/svg">
  <g transform="matrix(1 0 0 1 -219 -3350 )">
    <path d="M 246.5 3350  C 261.9 3350  274 3362.1  274 3377.5  C 274 3392.9  261.9 3405  246.5 3405  C 231.1 3405  219 3392.9  219 3377.5  C 219 3362.1  231.1 3350  246.5 3350  Z " fill-rule="nonzero" fill="#ffffff" stroke="none" />
    <path d="M 246.5 3350.5  C 261.62 3350.5  273.5 3362.38  273.5 3377.5  C 273.5 3392.62  261.62 3404.5  246.5 3404.5  C 231.38 3404.5  219.5 3392.62  219.5 3377.5  C 219.5 3362.38  231.38 3350.5  246.5 3350.5  Z " stroke-width="1" stroke="#797979" fill="none" />
  </g>
</svg>