<?xml version="1.0" encoding="utf-8"?>
<svg version="1.1" xmlns:xlink="http://www.w3.org/1999/xlink" width="26px" height="30px" xmlns="http://www.w3.org/2000/svg">
  <g transform="matrix(1 0 0 1 -219 -1859 )">
    <path d="M 19.5677083333333 1.13839285714286  L 24.8489583333333 6.36160714285714  C 25.1649305555556 6.67410714285714  25.4357638888889 7.09821428571429  25.6614583333333 7.63392857142857  C 25.8871527777778 8.16964285714286  26 8.66071428571428  26 9.10714285714286  L 26 28.3928571428571  C 26 28.8392857142857  25.8420138888889 29.21875  25.5260416666667 29.53125  C 25.2100694444444 29.84375  24.8263888888889 30  24.375 30  L 1.625 30  C 1.17361111111111 30  0.789930555555556 29.84375  0.473958333333333 29.53125  C 0.157986111111111 29.21875  0 28.8392857142857  0 28.3928571428571  L 0 1.60714285714286  C 0 1.16071428571428  0.157986111111111 0.781249999999999  0.473958333333333 0.46875  C 0.789930555555556 0.156250000000001  1.17361111111111 0  1.625 0  L 16.7916666666667 0  C 17.2430555555556 0  17.7395833333333 0.111607142857144  18.28125 0.334821428571429  C 18.8229166666667 0.558035714285714  19.2517361111111 0.825892857142856  19.5677083333333 1.13839285714286  Z M 18.02734375 2.64508928571429  C 17.8919270833333 2.51116071428571  17.6605902777778 2.38839285714285  17.3333333333333 2.27678571428571  L 17.3333333333333 8.57142857142857  L 23.6979166666667 8.57142857142857  C 23.5850694444444 8.24776785714285  23.4609375 8.01897321428571  23.3255208333333 7.88504464285714  L 18.02734375 2.64508928571429  Z M 2.16666666666667 27.8571428571429  L 23.8333333333333 27.8571428571429  L 23.8333333333333 10.7142857142857  L 16.7916666666667 10.7142857142857  C 16.3402777777778 10.7142857142857  15.9565972222222 10.5580357142857  15.640625 10.2455357142857  C 15.3246527777778 9.93303571428571  15.1666666666667 9.55357142857143  15.1666666666667 9.10714285714286  L 15.1666666666667 2.14285714285714  L 2.16666666666667 2.14285714285714  L 2.16666666666667 27.8571428571429  Z M 16.25 15  L 21.6666666666667 20.3571428571429  L 21.6666666666667 25.7142857142857  L 4.33333333333333 25.7142857142857  L 4.33333333333333 22.5  L 7.58333333333333 19.2857142857143  L 9.75 21.4285714285714  L 16.25 15  Z M 9.88541666666667 16.2053571428571  C 9.25347222222222 16.8303571428571  8.48611111111111 17.1428571428571  7.58333333333333 17.1428571428571  C 6.68055555555556 17.1428571428571  5.91319444444444 16.8303571428571  5.28125 16.2053571428571  C 4.64930555555556 15.5803571428571  4.33333333333333 14.8214285714286  4.33333333333333 13.9285714285714  C 4.33333333333333 13.0357142857143  4.64930555555556 12.2767857142857  5.28125 11.6517857142857  C 5.91319444444444 11.0267857142857  6.68055555555556 10.7142857142857  7.58333333333333 10.7142857142857  C 8.48611111111111 10.7142857142857  9.25347222222222 11.0267857142857  9.88541666666667 11.6517857142857  C 10.5173611111111 12.2767857142857  10.8333333333333 13.0357142857143  10.8333333333333 13.9285714285714  C 10.8333333333333 14.8214285714286  10.5173611111111 15.5803571428571  9.88541666666667 16.2053571428571  Z " fill-rule="nonzero" fill="#f1ca89" stroke="none" transform="matrix(1 0 0 1 219 1859 )" />
  </g>
</svg>