<?xml version="1.0" encoding="utf-8"?>
<svg version="1.1" xmlns:xlink="http://www.w3.org/1999/xlink" width="26px" height="35px" xmlns="http://www.w3.org/2000/svg">
  <g transform="matrix(1 0 0 1 -219 -1997 )">
    <path d="M 19.5677083333333 1.328125  L 24.8489583333333 7.421875  C 25.1649305555556 7.78645833333333  25.4357638888889 8.28125  25.6614583333333 8.90625  C 25.8871527777778 9.53125  26 10.1041666666667  26 10.625  L 26 33.125  C 26 33.6458333333333  25.8420138888889 34.0885416666667  25.5260416666667 34.453125  C 25.2100694444444 34.8177083333333  24.8263888888889 35  24.375 35  L 1.625 35  C 1.17361111111111 35  0.789930555555556 34.8177083333333  0.473958333333333 34.453125  C 0.157986111111111 34.0885416666667  0 33.6458333333333  0 33.125  L 0 1.875  C 0 1.35416666666667  0.157986111111111 0.911458333333332  0.473958333333333 0.546875  C 0.789930555555556 0.182291666666668  1.17361111111111 0  1.625 0  L 16.7916666666667 0  C 17.2430555555556 0  17.7395833333333 0.130208333333335  18.28125 0.390625000000001  C 18.8229166666667 0.651041666666666  19.2517361111111 0.963541666666665  19.5677083333333 1.328125  Z M 18.02734375 3.0859375  C 17.8919270833333 2.9296875  17.6605902777778 2.78645833333333  17.3333333333333 2.65625  L 17.3333333333333 10  L 23.6979166666667 10  C 23.5850694444444 9.62239583333333  23.4609375 9.35546875  23.3255208333333 9.19921875  L 18.02734375 3.0859375  Z M 2.16666666666667 32  L 23.8333333333333 32  L 23.8333333333333 12.5  L 16.7916666666667 12.5  C 16.3402777777778 12.5  15.9565972222222 12.3177083333333  15.640625 11.953125  C 15.3246527777778 11.5885416666667  15.1666666666667 11.1458333333333  15.1666666666667 10.625  L 15.1666666666667 3  L 2.16666666666667 3  L 2.16666666666667 32  Z M 9.02213541666667 15  L 3.94401041666667 15  L 3.94401041666667 17.08984375  L 5.12890625 17.08984375  L 7.90494791666667 30  L 10.5963541666667 30  L 12.7630208333333 20.52734375  C 12.8420138888889 20.2669270833333  12.8984375 19.9674479166667  12.9322916666667 19.62890625  C 12.9548611111111 19.4205729166667  12.9661458333333 19.2643229166667  12.9661458333333 19.16015625  L 13.0338541666667 19.16015625  L 13.0846354166667 19.62890625  C 13.0959201388889 19.66796875  13.1156684027778 19.7981770833333  13.1438802083333 20.01953125  C 13.1720920138889 20.2408854166667  13.203125 20.41015625  13.2369791666667 20.52734375  L 15.4036458333333 30  L 18.0950520833333 30  L 20.87109375 17.08984375  L 22.0559895833333 17.08984375  L 22.0559895833333 15  L 16.9778645833333 15  L 16.9778645833333 17.08984375  L 18.5013020833333 17.08984375  L 16.8255208333333 25.64453125  C 16.7690972222222 25.9049479166667  16.7296006944444 26.2044270833333  16.70703125 26.54296875  L 16.6731770833333 26.953125  L 16.60546875 26.953125  C 16.60546875 26.9140625  16.6026475694444 26.8717447916667  16.5970052083333 26.826171875  C 16.5913628472222 26.7805989583333  16.5828993055556 26.728515625  16.5716145833333 26.669921875  C 16.5603298611111 26.611328125  16.5546875 26.5690104166667  16.5546875 26.54296875  C 16.5434027777778 26.4778645833333  16.5208333333333 26.3411458333333  16.4869791666667 26.1328125  C 16.453125 25.9244791666667  16.4249131944444 25.76171875  16.40234375 25.64453125  L 13.96484375 15  L 12.03515625 15  L 9.59765625 25.64453125  C 9.57508680555556 25.76171875  9.54969618055556 25.9212239583333  9.521484375 26.123046875  C 9.49327256944444 26.3248697916667  9.47352430555556 26.46484375  9.46223958333333 26.54296875  L 9.39453125 26.953125  L 9.32682291666667 26.953125  L 9.29296875 26.54296875  C 9.27039930555556 26.2044270833333  9.23090277777778 25.9049479166667  9.17447916666667 25.64453125  L 7.49869791666667 17.08984375  L 9.02213541666667 17.08984375  L 9.02213541666667 15  Z " fill-rule="nonzero" fill="#027db4" stroke="none" transform="matrix(1 0 0 1 219 1997 )" />
  </g>
</svg>