<?xml version="1.0" encoding="utf-8"?>
<svg version="1.1" xmlns:xlink="http://www.w3.org/1999/xlink" width="22px" height="22px" xmlns="http://www.w3.org/2000/svg">
  <g transform="matrix(1 0 0 1 -471 -1863 )">
    <path d="M 15.984375 19.3106490233144  L 15.0324519230769 13.4744801512287  L 19.078125 9.35727788279773  L 13.4987980769231 8.49779458097038  L 11 3.20226843100189  L 8.50120192307692 8.49779458097038  L 2.921875 9.35727788279773  L 6.96754807692308 13.4744801512287  L 6.00240384615385 19.3106490233144  L 11 16.5519848771267  L 15.984375 19.3106490233144  Z M 21.2596153846154 7.88783868935098  C 21.7532051282051 7.97101449275362  22 8.18357487922705  22 8.52551984877127  C 22 8.72883847931107  21.8854166666667 8.95064062171812  21.65625 9.19092627599244  L 16.8569711538462 14.0982986767486  L 17.9939903846154 21.0296156269691  C 18.0028044871795 21.0943079185045  18.0072115384615 21.1867254778408  18.0072115384615 21.3068683049779  C 18.0072115384615 21.7689561016593  17.8265224358974 22  17.4651442307692 22  C 17.2976762820513 22  17.1213942307692 21.9445494643982  16.9362980769231 21.8336483931947  L 11 18.5620667926906  L 5.06370192307692 21.8336483931947  C 4.86979166666667 21.9445494643982  4.69350961538462 22  4.53485576923077 22  C 4.34975961538462 22  4.2109375 21.9329972694812  4.11838942307692 21.7989918084436  C 4.02584134615385 21.664986347406  3.97956730769231 21.5009451795841  3.97956730769231 21.3068683049779  C 3.97956730769231 21.2514177693762  3.98838141025641 21.1590002100399  4.00600961538462 21.0296156269691  L 5.14302884615385 14.0982986767486  L 0.330528846153846 9.19092627599244  C 0.110176282051282 8.9413988657845  0 8.71959672337744  0 8.52551984877127  C 0 8.18357487922705  0.246794871794872 7.97101449275362  0.740384615384615 7.88783868935098  L 7.37740384615385 6.87586641461878  L 10.3521634615385 0.568367989918083  C 10.5196314102564 0.18945599663936  10.7355769230769 0  11 0  C 11.2644230769231 0  11.4803685897436 0.18945599663936  11.6478365384615 0.568367989918083  L 14.6225961538462 6.87586641461878  L 21.2596153846154 7.88783868935098  Z " fill-rule="nonzero" fill="#555555" stroke="none" transform="matrix(1 0 0 1 471 1863 )" />
  </g>
</svg>