<?xml version="1.0" encoding="utf-8"?>
<svg version="1.1" xmlns:xlink="http://www.w3.org/1999/xlink" width="331px" height="73px" xmlns="http://www.w3.org/2000/svg">
  <g transform="matrix(1 0 0 1 -1233 -3440 )">
    <path d="M 0 53  L 0 20  C 0 8.80000000000001  8.79999999999995 0  20 0  L 311 0  C 322.2 0  331 8.80000000000001  331 20  L 331 53  C 331 62.9770728512216  324.016825194742 71.0496434828275  314.574608296231 72.6935791828129  C 313.41724044275 72.8950825323762  312.222927148778 73  311 73  L 295.444444444445 73  L 294.456790123454 73  L 291.493827160493 73  L 290.506172839507 73  L 20 73  C 8.79999999999995 73  0 64.2  0 53  Z " fill-rule="nonzero" fill="#f1ca89" stroke="none" fill-opacity="0.203921568627451" transform="matrix(1 0 0 1 1233 3440 )" />
  </g>
</svg>