<?xml version="1.0" encoding="utf-8"?>
<svg version="1.1" xmlns:xlink="http://www.w3.org/1999/xlink" width="22px" height="21px" xmlns="http://www.w3.org/2000/svg">
  <g transform="matrix(1 0 0 1 -3085 -3273 )">
    <path d="M 6.69166666666667 4.265625  C 7.11944444444444 4.77604166666667  7.33333333333333 5.39583333333333  7.33333333333333 6.125  C 7.33333333333333 6.85416666666667  7.11944444444444 7.47395833333333  6.69166666666667 7.984375  C 6.26388888888889 8.49479166666667  5.74444444444444 8.75  5.13333333333333 8.75  C 4.52222222222222 8.75  4.00277777777778 8.49479166666667  3.575 7.984375  C 3.14722222222222 7.47395833333333  2.93333333333333 6.85416666666667  2.93333333333333 6.125  C 2.93333333333333 5.39583333333333  3.14722222222222 4.77604166666667  3.575 4.265625  C 4.00277777777778 3.75520833333333  4.52222222222222 3.5  5.13333333333333 3.5  C 5.74444444444444 3.5  6.26388888888889 3.75520833333333  6.69166666666667 4.265625  Z M 14.3 5.6875  L 19.0666666666667 11.375  L 19.0666666666667 17.5  L 2.93333333333333 17.5  L 2.93333333333333 14.875  L 6.6 10.5  L 8.43333333333333 12.6875  L 14.3 5.6875  Z M 20.4244791666667 1.8798828125  C 20.3519097222222 1.79329427083333  20.2659722222222 1.75  20.1666666666667 2  L 1.83333333333333 2  C 1.73402777777778 1.75  1.64809027777778 1.79329427083333  1.57552083333333 1.8798828125  C 1.50295138888889 1.96647135416666  1.46666666666667 2.06901041666666  1.46666666666667 2.1875  L 1.46666666666667 18.8125  C 1.46666666666667 18.9309895833333  1.50295138888889 19.0335286458333  1.57552083333333 19.1201171875  C 1.64809027777778 19.2067057291667  1.73402777777778 19.25  1.83333333333333 19  L 20.1666666666667 19  C 20.2659722222222 19.25  20.3519097222222 19.2067057291667  20.4244791666667 19.1201171875  C 20.4970486111111 19.0335286458333  20.5333333333333 18.9309895833333  20.5333333333333 18.8125  L 20.5333333333333 2.1875  C 20.5333333333333 2.06901041666666  20.4970486111111 1.96647135416666  20.4244791666667 1.8798828125  Z M 21.4614583333333 0.642578125000001  C 21.8204861111111 1.07096354166667  22 1.5859375  22 2.1875  L 22 18.8125  C 22 19.4140625  21.8204861111111 19.9290364583333  21.4614583333333 20.357421875  C 21.1024305555556 20.7858072916667  20.6708333333333 21  20.1666666666667 21  L 1.83333333333333 21  C 1.32916666666667 21  0.897569444444445 20.7858072916667  0.538541666666667 20.357421875  C 0.179513888888889 19.9290364583333  0 19.4140625  0 18.8125  L 0 2.1875  C 0 1.5859375  0.179513888888889 1.07096354166667  0.538541666666667 0.642578125000001  C 0.897569444444445 0.214192708333331  1.32916666666667 0  1.83333333333333 0  L 20.1666666666667 0  C 20.6708333333333 0  21.1024305555556 0.214192708333331  21.4614583333333 0.642578125000001  Z " fill-rule="nonzero" fill="#519956" stroke="none" transform="matrix(1 0 0 1 3085 3273 )" />
  </g>
</svg>