<?xml version="1.0" encoding="utf-8"?>
<svg version="1.1" xmlns:xlink="http://www.w3.org/1999/xlink" width="13px" height="13px" xmlns="http://www.w3.org/2000/svg">
  <g transform="matrix(1 0 0 1 -2823 -3499 )">
    <path d="M 2829.5 3499  C 2833.14 3499  2836 3501.86  2836 3505.5  C 2836 3509.14  2833.14 3512  2829.5 3512  C 2825.86 3512  2823 3509.14  2823 3505.5  C 2823 3501.86  2825.86 3499  2829.5 3499  Z " fill-rule="nonzero" fill="#519956" stroke="none" />
    <path d="M 2829.5 3499.5  C 2832.86 3499.5  2835.5 3502.14  2835.5 3505.5  C 2835.5 3508.86  2832.86 3511.5  2829.5 3511.5  C 2826.14 3511.5  2823.5 3508.86  2823.5 3505.5  C 2823.5 3502.14  2826.14 3499.5  2829.5 3499.5  Z " stroke-width="1" stroke="#519956" fill="none" />
  </g>
</svg>