<?xml version="1.0" encoding="utf-8"?>
<svg version="1.1" xmlns:xlink="http://www.w3.org/1999/xlink" width="18px" height="24px" xmlns="http://www.w3.org/2000/svg">
  <g transform="matrix(1 0 0 1 -904 -5880 )">
    <path d="M 12.181640625 10.828125  C 13.060546875 10.046875  13.5 9.10416666666667  13.5 8  C 13.5 6.89583333333333  13.060546875 5.953125  12.181640625 5.171875  C 11.302734375 4.390625  10.2421875 4  9 4  C 7.7578125 4  6.697265625 4.390625  5.818359375 5.171875  C 4.939453125 5.953125  4.5 6.89583333333333  4.5 8  C 4.5 9.10416666666667  4.939453125 10.046875  5.818359375 10.828125  C 6.697265625 11.609375  7.7578125 12  9 12  C 10.2421875 12  11.302734375 11.609375  12.181640625 10.828125  Z M 15.36328125 2.34375  C 17.12109375 3.90625  18 5.79166666666666  18 8  C 18 9.13541666666666  17.806640625 10.0677083333333  17.419921875 10.796875  L 11.021484375 22.890625  C 10.833984375 23.234375  10.5556640625 23.5052083333333  10.1865234375 23.703125  C 9.8173828125 23.9010416666667  9.421875 24  9 24  C 8.578125 24  8.1826171875 23.9010416666667  7.8134765625 23.703125  C 7.4443359375 23.5052083333333  7.171875 23.234375  6.99609375 22.890625  L 0.580078125 10.796875  C 0.193359375 10.0677083333333  0 9.13541666666666  0 8  C 0 5.79166666666666  0.87890625 3.90625  2.63671875 2.34375  C 4.39453125 0.781250000000001  6.515625 0  9 0  C 11.484375 0  13.60546875 0.781250000000001  15.36328125 2.34375  Z " fill-rule="nonzero" fill="#519956" stroke="none" transform="matrix(1 0 0 1 904 5880 )" />
  </g>
</svg>