<?xml version="1.0" encoding="utf-8"?>
<svg version="1.1" xmlns:xlink="http://www.w3.org/1999/xlink" width="20px" height="21px" xmlns="http://www.w3.org/2000/svg">
  <g transform="matrix(1 0 0 1 -868 -2203 )">
    <path d="M 17.5142045454545 2.61008522727273  C 17.0691287878788 2.14275568181818  16.5340909090909 1.90909090909091  15.9090909090909 1.90909090909091  L 4.09090909090909 1.90909090909091  C 3.46590909090909 1.90909090909091  2.93087121212121 2.14275568181818  2.48579545454545 2.61008522727273  C 2.0407196969697 3.07741477272727  1.81818181818182 3.63920454545455  1.81818181818182 4.29545454545455  L 1.81818181818182 16.7045454545455  C 1.81818181818182 17.3607954545455  2.0407196969697 17.9225852272727  2.48579545454545 18.3899147727273  C 2.93087121212121 18.8572443181818  3.46590909090909 19.0909090909091  4.09090909090909 19.0909090909091  L 15.9090909090909 19.0909090909091  C 16.5340909090909 19.0909090909091  17.0691287878788 18.8572443181818  17.5142045454545 18.3899147727273  C 17.9592803030303 17.9225852272727  18.1818181818182 17.3607954545455  18.1818181818182 16.7045454545455  L 18.1818181818182 4.29545454545455  C 18.1818181818182 3.63920454545455  17.9592803030303 3.07741477272727  17.5142045454545 2.61008522727273  Z M 18.7997159090909 1.26029829545455  C 19.5999053030303 2.10049715909091  20 3.11221590909091  20 4.29545454545455  L 20 16.7045454545455  C 20 17.8877840909091  19.5999053030303 18.8995028409091  18.7997159090909 19.7397017045455  C 17.9995265151515 20.5799005681818  17.0359848484849 21  15.9090909090909 21  L 4.09090909090909 21  C 2.96401515151515 21  2.00047348484849 20.5799005681818  1.20028409090909 19.7397017045455  C 0.400094696969697 18.8995028409091  0 17.8877840909091  0 16.7045454545455  L 0 4.29545454545455  C 0 3.11221590909091  0.400094696969697 2.10049715909091  1.20028409090909 1.26029829545455  C 2.00047348484849 0.42009943181818  2.96401515151515 0  4.09090909090909 0  L 15.9090909090909 0  C 17.0359848484849 0  17.9995265151515 0.42009943181818  18.7997159090909 1.26029829545455  Z " fill-rule="nonzero" fill="#7f7f7f" stroke="none" transform="matrix(1 0 0 1 868 2203 )" />
  </g>
</svg>